<?xml version="1.0" standalone="no"?>
<!DOCTYPE svg PUBLIC "-//W3C//DTD SVG 20010904//EN"
 "http://www.w3.org/TR/2001/REC-SVG-20010904/DTD/svg10.dtd">
<svg version="1.0" xmlns="http://www.w3.org/2000/svg"
 width="200.000000pt" height="200.000000pt" viewBox="0 0 200.000000 200.000000"
 preserveAspectRatio="xMidYMid meet">
<metadata>
Created by potrace 1.16, written by Peter Selinger 2001-2019
</metadata>
<g transform="translate(0.000000,200.000000) scale(0.100000,-0.100000)"
fill="#000000" stroke="none">
<path d="M1222 1620 c-12 -5 -26 -20 -31 -33 -5 -12 -59 -214 -120 -447 -62
-234 -117 -440 -123 -459 -10 -33 -13 -28 -114 224 -57 141 -111 266 -120 276
-19 21 -46 24 -72 10 -9 -5 -60 -95 -112 -200 l-95 -191 -148 0 c-145 0 -148
0 -173 -26 -20 -19 -24 -31 -19 -52 11 -49 25 -52 218 -52 98 0 186 4 195 9 9
5 48 73 87 150 38 77 72 137 76 133 3 -4 57 -134 119 -290 94 -236 117 -285
136 -293 24 -9 67 1 77 18 3 5 58 207 122 449 63 241 119 447 123 457 5 13 38
-78 105 -295 59 -192 104 -318 114 -326 12 -8 71 -12 210 -12 180 0 194 1 213
20 27 27 25 56 -5 85 -24 24 -28 25 -180 25 -85 0 -155 2 -155 5 0 6 -184 598
-221 711 -24 72 -35 93 -55 103 -14 6 -26 11 -27 10 -1 0 -12 -4 -25 -9z"/>
</g>
</svg>
