<?xml version="1.0" standalone="no"?>
<!DOCTYPE svg PUBLIC "-//W3C//DTD SVG 20010904//EN"
 "http://www.w3.org/TR/2001/REC-SVG-20010904/DTD/svg10.dtd">
<svg version="1.0" xmlns="http://www.w3.org/2000/svg"
 width="126.000000pt" height="264.000000pt" viewBox="0 0 126.000000 264.000000"
 preserveAspectRatio="xMidYMid meet">

<g transform="translate(0.000000,264.000000) scale(0.100000,-0.100000)"
fill="#000000" stroke="none">
<path d="M558 2359 c-49 -14 -126 -83 -149 -134 -22 -48 -25 -142 -6 -188 20
-47 63 -94 115 -124 116 -68 283 -9 336 119 22 51 20 143 -3 193 -22 48 -71
98 -118 120 -43 21 -127 27 -175 14z"/>
<path d="M320 1792 c-32 -17 -47 -44 -172 -313 -87 -187 -137 -306 -138 -327
0 -51 54 -102 109 -102 63 0 89 33 172 213 40 86 75 157 78 157 3 0 5 -291 3
-646 -1 -434 1 -659 8 -685 18 -67 96 -99 150 -62 50 35 49 27 50 404 0 389 1
394 55 387 l30 -3 5 -365 c4 -270 8 -371 18 -387 15 -26 61 -53 92 -53 31 0
77 27 92 53 10 17 14 173 18 691 l5 670 74 -160 c85 -181 111 -214 172 -214
53 0 109 51 109 99 0 26 -233 547 -273 612 -28 45 -59 49 -349 49 -247 0 -277
-2 -308 -18z m346 -74 l-24 -43 39 -205 39 -204 -47 -48 -48 -48 -47 47 -47
48 40 205 40 204 -20 37 c-12 20 -21 39 -21 43 0 3 27 6 60 6 l61 0 -25 -42z"/>
</g>
</svg>
