<?xml version="1.0" standalone="no"?>
<!DOCTYPE svg PUBLIC "-//W3C//DTD SVG 20010904//EN"
 "http://www.w3.org/TR/2001/REC-SVG-20010904/DTD/svg10.dtd">
<svg version="1.0" xmlns="http://www.w3.org/2000/svg"
 width="791.000000pt" height="90.000000pt" viewBox="0 0 791.000000 90.000000"
 preserveAspectRatio="xMidYMid meet">

<g transform="translate(0.000000,90.000000) scale(0.100000,-0.100000)"
fill="#000000" stroke="none">
<path d="M7795 879 c-38 -5 -75 -11 -82 -14 -14 -5 -16 -215 -6 -617 l6 -248
94 0 c51 0 93 1 93 3 1 1 4 201 7 445 l6 442 -24 -1 c-13 -1 -55 -5 -94 -10z"/>
<path d="M7395 833 c-16 -2 -45 -6 -62 -9 l-33 -5 0 -409 0 -410 100 0 100 0
0 420 0 420 -37 -1 c-21 -1 -51 -4 -68 -6z"/>
<path d="M6987 786 l-88 -11 -2 -230 c-1 -126 0 -301 1 -387 l2 -158 95 0 95
0 2 163 c4 304 -1 632 -9 633 -4 1 -48 -4 -96 -10z"/>
<path d="M6620 744 c-8 -1 -41 -6 -72 -9 l-58 -6 0 -365 0 -364 100 0 100 0 0
375 0 375 -27 -1 c-16 -1 -35 -3 -43 -5z"/>
<path d="M6180 695 c-52 -7 -96 -14 -97 -14 -1 -1 0 -29 1 -63 2 -35 4 -188 4
-340 l2 -278 95 0 95 0 0 355 c0 195 -1 354 -2 354 -2 -1 -46 -7 -98 -14z"/>
<path d="M5753 648 l-83 -10 0 -319 0 -319 95 0 95 0 1 98 c0 53 3 183 5 287
6 201 0 276 -19 274 -7 -1 -49 -6 -94 -11z"/>
<path d="M5370 604 c-14 -3 -44 -7 -67 -10 l-43 -5 0 -295 0 -294 100 0 100 0
0 305 0 305 -32 -1 c-18 -1 -44 -3 -58 -5z"/>
<path d="M4953 555 c-50 -5 -95 -13 -98 -17 -4 -4 -4 -126 0 -272 l7 -266 93
0 93 0 7 276 c4 155 4 279 -1 283 -5 4 -50 2 -101 -4z"/>
<path d="M4595 515 c-5 -2 -40 -6 -77 -10 l-68 -7 0 -249 0 -249 99 0 98 0 6
138 c4 75 7 192 7 260 l1 122 -28 -1 c-15 0 -32 -2 -38 -4z"/>
<path d="M4102 460 c-29 -4 -55 -10 -58 -13 -2 -2 -1 -104 2 -226 l7 -221 94
0 93 0 0 158 c0 88 3 193 6 235 l7 77 -49 -1 c-27 -1 -73 -5 -102 -9z"/>
<path d="M3780 424 c-14 -3 -44 -7 -67 -10 l-43 -5 0 -205 0 -204 95 0 95 0 0
178 c0 97 3 194 6 215 7 37 6 37 -27 36 -19 -1 -45 -3 -59 -5z"/>
<path d="M3360 376 l-95 -11 -3 -182 -2 -183 100 0 100 0 0 195 c0 107 -1 194
-2 194 -2 -1 -46 -7 -98 -13z"/>
<path d="M3005 335 c-5 -2 -40 -6 -77 -10 l-68 -7 0 -159 0 -159 95 0 95 0 0
170 c0 156 -1 170 -17 169 -10 0 -22 -2 -28 -4z"/>
<path d="M2545 283 c-16 -2 -45 -6 -62 -9 l-33 -5 0 -134 0 -135 100 0 100 0
0 145 0 145 -37 -1 c-21 -1 -51 -4 -68 -6z"/>
<path d="M2133 238 l-83 -10 0 -114 0 -114 95 0 95 0 0 125 c0 94 -3 125 -12
124 -7 -1 -50 -6 -95 -11z"/>
<path d="M1760 194 c-8 -1 -41 -6 -72 -9 l-58 -6 0 -90 0 -89 95 0 95 0 0 100
c0 108 0 107 -60 94z"/>
<path d="M1300 143 c-81 -8 -80 -7 -80 -78 l0 -65 100 0 100 0 0 75 0 75 -42
-2 c-24 0 -59 -3 -78 -5z"/>
<path d="M903 98 l-83 -10 0 -44 0 -44 95 0 95 0 0 55 c0 38 -4 55 -12 54 -7
-1 -50 -6 -95 -11z"/>
<path d="M520 54 c-14 -3 -44 -7 -67 -10 -34 -4 -43 -9 -43 -25 0 -18 8 -19
100 -19 l100 0 0 30 c0 27 -3 30 -32 29 -18 -1 -44 -3 -58 -5z"/>
<path d="M135 10 l-50 -7 58 -1 c32 -1 57 2 57 8 0 6 -3 9 -7 8 -5 0 -30 -4
-58 -8z"/>
</g>
</svg>
