<?xml version="1.0" standalone="no"?>
<!DOCTYPE svg PUBLIC "-//W3C//DTD SVG 20010904//EN"
 "http://www.w3.org/TR/2001/REC-SVG-20010904/DTD/svg10.dtd">
<svg version="1.0" xmlns="http://www.w3.org/2000/svg"
 width="1021.000000pt" height="1494.000000pt" viewBox="0 0 1021.000000 1494.000000"
 preserveAspectRatio="xMidYMid meet">
<metadata>
Created by potrace 1.16, written by Peter Selinger 2001-2019
</metadata>
<g transform="translate(0.000000,1494.000000) scale(0.100000,-0.100000)"
fill="#000000" stroke="none">
<path d="M4775 14933 c-22 -1 -98 -8 -170 -13 -175 -15 -389 -45 -564 -81
-964 -195 -1801 -652 -2536 -1384 -906 -902 -1399 -1962 -1495 -3214 -13 -174
-13 -639 0 -812 83 -1072 475 -2030 1176 -2875 750 -904 1725 -1483 2884
-1713 107 -22 216 -42 243 -46 l47 -6 0 -745 0 -744 -835 0 c-679 0 -842 -3
-868 -14 -43 -17 -95 -78 -102 -118 -3 -18 -5 -301 -3 -630 l3 -596 30 -38
c65 -79 -3 -74 937 -74 l838 0 0 -837 c0 -791 1 -840 19 -878 20 -46 69 -91
109 -103 15 -4 293 -7 617 -7 579 0 591 0 630 21 22 11 54 40 70 63 l30 43 3
849 2 849 843 0 c946 0 877 -5 942 74 l30 38 3 596 c2 329 0 612 -3 630 -7 40
-59 101 -102 118 -26 11 -190 14 -873 14 l-840 0 0 745 c0 410 3 745 8 745 23
0 306 54 422 80 793 180 1484 520 2110 1039 147 122 488 462 612 611 704 848
1085 1747 1194 2820 21 204 24 751 5 945 -79 827 -288 1479 -687 2145 -309
514 -792 1056 -1300 1456 -536 422 -1170 738 -1802 899 -274 69 -624 124 -922
145 -132 9 -607 11 -705 3z m695 -1488 c603 -58 1122 -240 1603 -560 474 -315
925 -792 1200 -1270 389 -675 536 -1502 416 -2340 -53 -372 -152 -690 -319
-1030 -174 -351 -394 -657 -689 -954 -758 -766 -1689 -1130 -2761 -1080 -797
37 -1478 297 -2090 798 -128 105 -373 342 -486 472 -469 539 -743 1146 -841
1869 -26 193 -26 764 0 960 103 774 406 1409 950 1994 377 405 833 722 1317
914 322 128 621 195 1050 235 102 10 522 5 650 -8z"/>
</g>
</svg>
