<?xml version="1.0" standalone="no"?>
<!DOCTYPE svg PUBLIC "-//W3C//DTD SVG 20010904//EN"
 "http://www.w3.org/TR/2001/REC-SVG-20010904/DTD/svg10.dtd">
<svg version="1.0" xmlns="http://www.w3.org/2000/svg"
 width="798.000000pt" height="351.000000pt" viewBox="0 0 798.000000 351.000000"
 preserveAspectRatio="xMidYMid meet">

<g transform="translate(0.000000,351.000000) scale(0.100000,-0.100000)"
fill="#000000" stroke="none">
<path d="M7910 3495 c-30 -7 -149 -33 -265 -58 -115 -26 -610 -134 -1100 -242
-489 -108 -1371 -302 -1960 -431 -588 -129 -1295 -284 -1570 -345 -275 -60
-858 -188 -1295 -284 -1200 -263 -1291 -282 -1485 -325 -99 -22 -191 -43 -204
-46 -34 -7 -22 -14 71 -34 45 -10 321 -71 613 -135 292 -64 600 -131 685 -150
155 -34 1303 -286 1690 -371 433 -95 2324 -510 2725 -599 160 -35 610 -134
1000 -220 391 -85 809 -177 930 -204 121 -27 222 -47 225 -44 3 3 -388 396
-867 872 -480 477 -873 871 -873 876 0 4 393 398 873 876 479 477 870 869 867
872 -3 2 -30 -1 -60 -8z"/>
</g>
</svg>
