<?xml version="1.0" standalone="no"?>
<!DOCTYPE svg PUBLIC "-//W3C//DTD SVG 20010904//EN"
 "http://www.w3.org/TR/2001/REC-SVG-20010904/DTD/svg10.dtd">
<svg version="1.0" xmlns="http://www.w3.org/2000/svg"
 width="126.000000pt" height="264.000000pt" viewBox="0 0 126.000000 264.000000"
 preserveAspectRatio="xMidYMid meet">

<g transform="translate(0.000000,264.000000) scale(0.100000,-0.100000)"
fill="#000000" stroke="none">
<path d="M551 1566 c-198 -72 -201 -370 -5 -452 90 -38 213 3 271 89 126 189
-56 439 -266 363z"/>
<path d="M61 1326 c-32 -18 -50 -53 -51 -99 0 -44 13 -58 241 -259 l128 -113
1 -373 c0 -410 2 -427 59 -456 37 -20 54 -20 90 -2 43 23 51 54 51 195 0 109
3 132 18 151 23 28 59 20 73 -17 5 -13 9 -82 9 -152 0 -122 1 -129 24 -154 13
-14 37 -29 52 -33 34 -9 87 18 103 52 7 17 11 145 11 400 l0 376 28 26 c15 15
90 83 166 152 173 156 166 148 178 179 24 63 -29 141 -96 141 -38 0 -62 -17
-230 -168 -141 -126 -182 -147 -291 -146 -104 0 -146 22 -284 146 -176 157
-190 168 -225 168 -17 -1 -42 -7 -55 -14z"/>
</g>
</svg>
