<?xml version="1.0" standalone="no"?>
<!DOCTYPE svg PUBLIC "-//W3C//DTD SVG 20010904//EN"
 "http://www.w3.org/TR/2001/REC-SVG-20010904/DTD/svg10.dtd">
<svg version="1.0" xmlns="http://www.w3.org/2000/svg"
 width="437.000000pt" height="443.000000pt" viewBox="0 0 437.000000 443.000000"
 preserveAspectRatio="xMidYMid meet">

<g transform="translate(0.000000,443.000000) scale(0.100000,-0.100000)"
fill="#000000" stroke="none">
<path d="M3101 4360 c0 -8 6 -42 14 -75 22 -89 21 -93 -22 -100 -263 -45 -571
-157 -784 -285 -98 -60 -99 -60 -177 -60 -77 0 -81 1 -163 51 -223 135 -469
229 -726 279 -59 11 -108 22 -110 24 -2 2 3 34 11 72 18 83 14 95 -7 22 -9
-29 -21 -73 -28 -98 -22 -75 -16 -272 10 -355 38 -119 79 -289 103 -423 17
-100 22 -166 23 -307 0 -244 -2 -252 -208 -690 -79 -169 -130 -309 -171 -465
-121 -470 -111 -1159 23 -1624 63 -218 71 -208 15 20 -63 261 -94 539 -94 862
l0 163 88 -6 c48 -4 171 -12 274 -19 l186 -13 100 -86 c156 -136 320 -322 409
-464 46 -74 48 -82 54 -168 8 -117 28 -334 38 -410 l8 -60 2 90 c0 50 -6 145
-14 210 -8 66 -15 145 -15 175 l0 55 75 1 75 1 0 -41 c0 -23 -7 -93 -15 -158
-19 -153 -29 -344 -15 -303 5 17 14 84 20 150 6 66 15 149 20 185 5 36 10 97
10 135 0 79 21 129 99 235 44 60 179 195 187 187 2 -2 -14 -201 -36 -442 -21
-242 -37 -441 -34 -444 8 -9 125 -17 130 -10 6 10 74 765 81 901 l6 117 41 28
c145 96 184 113 269 118 152 10 462 35 480 39 14 3 17 -4 18 -42 6 -302 -23
-569 -102 -937 -66 -315 -56 -308 26 15 72 287 105 563 105 881 0 290 -19 478
-76 739 -5 21 27 72 176 285 199 284 278 411 371 597 83 165 129 273 172 398
45 133 57 201 18 98 -133 -345 -305 -676 -477 -921 -196 -279 -357 -518 -380
-567 -44 -90 -80 -136 -127 -159 -52 -25 -74 -26 -152 -5 -167 43 -172 44
-200 22 -34 -27 -85 -116 -85 -150 0 -49 28 -103 60 -115 40 -15 38 -33 -4
-33 -42 0 -78 28 -112 86 l-27 46 18 100 c10 56 24 124 31 152 18 66 11 71
-11 6 -12 -35 -25 -55 -44 -65 -21 -10 -33 -30 -49 -79 -44 -134 -42 -182 13
-265 32 -49 45 -91 28 -91 -5 0 -30 16 -56 36 -37 27 -56 51 -79 100 -43 93
-45 127 -13 225 46 136 101 266 132 305 25 33 25 36 6 26 -38 -21 -61 -61
-122 -215 -81 -207 -81 -207 -37 -309 38 -89 45 -142 22 -186 -16 -31 -54 -68
-62 -60 -3 3 -9 41 -14 84 -5 44 -14 126 -21 184 -11 102 -11 109 15 210 14
58 40 149 57 203 42 131 45 133 186 116 60 -7 167 -13 238 -13 120 -1 133 1
168 22 74 47 173 212 304 512 100 228 258 618 299 740 36 106 83 158 170 188
33 11 49 21 37 21 -28 1 -99 -26 -136 -52 l-29 -20 -65 64 c-100 99 -214 234
-287 342 -65 96 -66 98 -66 165 0 37 -11 112 -24 167 -25 104 -45 161 -45 135z
m-1786 -227 c139 -32 309 -91 432 -148 123 -58 273 -144 280 -161 17 -44 -147
-239 -242 -287 -131 -66 -270 -75 -378 -25 -66 31 -162 118 -207 188 -63 99
-97 255 -85 393 l7 78 42 -6 c22 -4 91 -18 151 -32z m1829 6 c11 -54 6 -191
-8 -260 -22 -101 -72 -194 -143 -265 -192 -192 -449 -178 -646 35 -50 54 -117
153 -117 173 0 3 35 27 78 52 202 118 479 226 697 272 140 29 131 29 139 -7z
m174 -399 c31 -36 101 -111 155 -167 l100 -102 -16 -33 c-8 -18 -40 -101 -71
-184 -111 -306 -240 -617 -313 -759 l-21 -40 -17 40 c-60 140 -109 270 -128
340 -56 204 -7 621 108 914 18 47 36 104 40 126 4 22 8 46 11 53 2 7 25 -17
50 -55 26 -37 72 -97 102 -133z m-1072 13 c81 -140 208 -244 338 -279 154 -41
330 13 436 134 22 24 40 43 40 41 0 -2 -11 -35 -23 -74 l-23 -70 -73 -37 c-41
-20 -104 -42 -142 -49 -90 -16 -145 -6 -389 69 -175 54 -190 57 -285 56 -91
-1 -117 -6 -288 -57 -233 -69 -320 -84 -399 -68 -68 14 -166 61 -194 93 -16
18 -54 126 -54 154 0 3 17 -16 39 -43 43 -55 127 -115 193 -139 61 -22 173
-29 241 -15 146 31 291 145 358 280 l34 70 76 0 76 1 39 -67z m169 -286 c195
-62 295 -82 368 -73 64 9 148 38 186 65 33 24 42 26 36 9 -19 -53 -45 -269
-46 -382 0 -187 21 -281 123 -538 59 -148 60 -134 -29 -277 -102 -162 -123
-175 -283 -173 -63 0 -168 6 -232 13 -90 10 -123 10 -143 1 -14 -7 -43 -12
-64 -12 -20 0 -44 -6 -53 -12 -17 -14 -74 -181 -108 -318 -18 -71 -21 -100
-15 -179 l7 -94 -133 6 c-74 4 -177 15 -229 26 -144 29 -359 105 -515 181
-157 77 -385 222 -385 244 0 38 76 260 127 370 30 66 82 178 113 247 138 299
162 467 114 797 -8 57 -17 109 -21 117 -3 9 18 -1 47 -20 66 -45 142 -66 228
-66 85 0 164 16 362 74 85 25 164 48 175 51 11 3 61 3 110 1 76 -3 117 -12
260 -58z m-60 -1404 c-3 -10 -29 -92 -57 -183 -56 -185 -60 -224 -38 -377 12
-87 12 -106 0 -128 -19 -35 -32 -27 -54 31 -13 35 -20 84 -24 169 -4 112 -2
130 27 240 63 240 75 264 130 265 18 0 22 -4 16 -17z m947 -198 l3 -40 -112
-56 c-134 -67 -280 -125 -426 -170 -91 -28 -110 -31 -117 -19 -12 20 -5 25 63
44 31 9 91 34 133 56 61 33 85 40 130 40 101 0 169 51 230 173 20 39 44 83 53
96 l16 25 12 -55 c7 -30 14 -72 15 -94z m-2293 -30 c211 -139 445 -245 675
-306 122 -32 313 -59 418 -59 39 0 68 -4 68 -10 0 -14 -405 -13 -700 1 l-235
12 -80 57 c-67 48 -160 109 -281 186 -21 13 -21 15 -8 81 19 91 24 113 27 113
2 0 54 -34 116 -75z m2323 -167 l2 -41 -144 -61 c-80 -34 -158 -69 -175 -78
-21 -11 -74 -17 -175 -22 -80 -4 -182 -9 -228 -13 -74 -5 -85 -4 -96 13 -23
33 -22 38 14 45 28 6 39 3 63 -17 22 -19 40 -24 83 -24 35 0 54 4 54 12 0 16
-31 48 -47 48 -7 0 -13 3 -13 8 0 4 37 17 83 29 121 31 272 89 426 164 l136
65 7 -44 c4 -24 8 -62 10 -84z m-782 113 c0 -5 -7 -42 -15 -82 -9 -40 -13 -80
-10 -89 3 -10 -6 -24 -25 -38 l-30 -23 0 37 c0 40 25 134 47 177 13 26 33 37
33 18z m276 -33 l69 -21 -70 -32 c-85 -40 -166 -68 -173 -60 -15 15 67 135 93
135 7 0 44 -10 81 -22z m-1798 -171 c73 -49 131 -92 129 -94 -4 -3 -207 12
-288 23 l-46 5 9 57 c18 128 17 123 41 111 12 -7 82 -52 155 -102z m2315 -19
c2 -18 3 -36 1 -39 -2 -4 -50 -12 -106 -18 -57 -7 -116 -14 -133 -16 l-30 -4
30 16 c39 22 207 92 221 92 7 1 14 -14 17 -31z m-794 -11 c-2 -2 -17 -7 -34
-11 l-30 -6 24 20 c17 14 27 18 34 11 6 -6 9 -12 6 -14z m821 -97 c0 -33 -4
-60 -9 -60 -11 0 -25 95 -16 110 15 25 25 6 25 -50z m-2474 36 c0 0 -2 -25 -4
-54 l-4 -52 -44 2 c-48 1 -50 5 -37 81 l6 38 41 -7 c23 -3 41 -7 42 -8z m2437
-38 c4 -28 5 -54 3 -56 -3 -2 -22 -6 -44 -9 -35 -5 -40 -3 -45 18 -4 13 -7 38
-7 56 0 27 4 32 28 36 60 9 59 10 65 -45z m-2360 33 c24 -1 27 -5 27 -33 0
-18 -3 -43 -6 -56 -6 -20 -11 -23 -43 -18 -20 3 -39 5 -43 6 -10 0 -10 36 -2
78 4 21 11 29 23 27 9 -2 28 -4 44 -4z m103 -7 c28 -5 29 -7 26 -61 l-4 -55
-30 6 c-17 3 -38 6 -47 6 -13 0 -15 9 -13 55 4 59 7 61 68 49z m2157 -41 c6
-55 -1 -63 -55 -63 l-36 0 -4 51 c-1 28 -1 53 1 55 2 2 23 4 46 4 l42 0 6 -47z
m-2023 20 c0 -10 -3 -35 -6 -55 -6 -37 -8 -38 -50 -38 -48 0 -49 2 -38 73 6
36 8 37 50 37 35 0 44 -3 44 -17z m100 -12 c0 -9 -3 -33 -6 -53 -7 -37 -7 -38
-52 -38 l-45 0 7 38 c3 20 6 46 6 57 0 18 5 20 45 17 34 -3 45 -8 45 -21z
m1714 -22 c4 -28 5 -53 2 -56 -2 -3 -48 -7 -100 -10 l-96 -6 0 52 c0 50 1 51
29 51 16 0 36 3 45 6 13 5 16 -3 18 -47 l2 -54 3 52 c4 52 4 52 41 56 20 2 40
4 43 5 4 1 9 -21 13 -49z m100 29 c17 -66 4 -88 -55 -88 -21 0 -29 5 -29 18 0
9 -3 34 -6 55 l-7 37 46 0 c38 0 46 -3 51 -22z m-1714 -49 l0 -49 -45 0 -45 0
0 53 0 52 45 -3 45 -4 0 -49z m106 -1 l-5 -53 12 50 12 50 43 -3 42 -3 0 -50
0 -50 -100 2 -100 1 0 54 0 54 50 0 51 0 -5 -52z m1195 15 c0 -21 2 -46 4 -55
3 -15 -4 -18 -46 -18 l-49 0 0 49 0 50 38 4 c20 2 40 4 45 5 4 1 7 -15 8 -35z
m109 -13 c0 -48 -1 -49 -34 -56 -51 -9 -58 -3 -63 54 l-4 52 50 0 51 0 0 -50z
m-1098 -15 l-4 -55 -44 0 -44 0 0 55 0 55 48 0 47 0 -3 -55z m108 -2 l0 -53
-51 0 c-48 0 -51 1 -45 23 3 12 6 37 6 55 0 33 0 33 45 31 l45 -3 0 -53z m72
48 c25 -1 27 -5 30 -48 l4 -48 8 50 8 50 44 -4 44 -3 0 -49 0 -49 -100 0 -100
0 0 54 c0 46 3 54 18 51 9 -2 29 -4 44 -4z m268 5 c0 -1 9 -25 20 -53 l20 -53
-80 0 -80 0 0 53 0 53 60 0 c33 0 60 0 60 0z m440 -46 l0 -50 -47 0 c-33 0
-43 3 -34 9 9 6 15 26 15 50 1 39 2 41 34 41 32 0 32 0 32 -50z m-171 16 c14
-15 21 -33 19 -48 -2 -19 -9 -23 -36 -24 -29 0 -33 2 -28 20 3 12 6 33 6 49 0
33 10 34 39 3z m55 -67 c14 -28 14 -30 0 -25 -9 3 -18 6 -20 6 -2 0 -4 11 -4
25 0 33 5 32 24 -6z m-214 1 c0 -5 -7 -10 -16 -10 -8 0 -12 5 -9 10 3 6 10 10
16 10 5 0 9 -4 9 -10z m-292 -21 l302 0 0 -30 c0 -27 3 -30 23 -24 12 4 33 18
48 31 14 13 33 24 43 24 17 0 18 -7 12 -96 l-7 -97 -86 -80 c-102 -97 -162
-173 -212 -269 -41 -78 -47 -81 -126 -72 l-50 6 -49 84 c-74 125 -196 274
-342 413 l-129 124 135 -7 c74 -4 271 -7 438 -7z m712 8 c0 -7 -148 -97 -158
-97 -6 0 -9 -7 -6 -15 7 -17 -20 -20 -75 -9 -30 6 -32 9 -30 50 2 34 7 44 20
44 32 0 67 -19 74 -39 3 -12 11 -21 16 -21 5 0 2 16 -6 36 -8 20 -15 40 -15
45 0 5 41 9 90 9 50 0 90 -1 90 -3z m-202 -137 c31 0 32 -1 32 -45 l0 -45 -39
0 c-63 0 -71 7 -71 57 0 42 2 45 23 39 12 -3 37 -6 55 -6z m22 -147 l0 -48
-55 3 c-49 3 -55 6 -55 25 0 57 10 67 61 67 l49 0 0 -47z m-25 -59 c17 -4 20
-12 17 -48 l-4 -43 -51 5 c-29 2 -53 6 -55 7 -1 1 0 21 4 44 6 38 9 41 38 41
17 0 40 -3 51 -6z m12 -108 c1 -1 -1 -20 -4 -44 l-6 -42 -51 6 c-28 4 -52 8
-54 9 -1 1 0 21 4 44 l7 42 51 -6 c28 -4 52 -8 53 -9z m-9 -102 c2 -1 1 -21
-3 -44 l-7 -42 -51 7 c-29 3 -52 7 -53 8 0 1 1 21 4 44 l4 42 51 -6 c29 -3 54
-7 55 -9z m-10 -100 c2 -1 1 -21 -3 -43 -7 -40 -7 -41 -48 -41 -56 0 -64 8
-59 56 l4 41 51 -5 c29 -2 54 -6 55 -8z m-14 -134 c-1 -19 -2 -40 -3 -45 -1
-12 -102 -4 -101 8 0 4 0 23 0 43 l0 35 53 -3 52 -3 -1 -35z m-34 -66 c31 -7
32 -8 27 -46 -3 -22 -7 -41 -9 -43 -1 -2 -24 -1 -50 2 l-48 6 0 43 c0 48 8 52
80 38z m3 -104 c13 0 17 -9 17 -39 0 -22 -4 -42 -9 -45 -5 -3 -30 -3 -55 0
l-46 7 0 45 0 45 38 -7 c20 -3 45 -6 55 -6z m-25 -100 c31 0 32 -2 32 -39 0
-49 -9 -55 -66 -46 l-44 6 0 46 c0 42 2 45 23 39 12 -3 37 -6 55 -6z"/>
<path d="M2371 2243 c-21 -18 -20 -18 54 -18 74 0 75 0 54 18 -11 9 -36 17
-54 17 -18 0 -42 -8 -54 -17z"/>
<path d="M2144 1377 c-2 -30 0 -37 6 -22 11 26 12 65 3 65 -5 0 -9 -19 -9 -43z"/>
</g>
</svg>
