<?xml version="1.0" standalone="no"?>
<!DOCTYPE svg PUBLIC "-//W3C//DTD SVG 20010904//EN"
 "http://www.w3.org/TR/2001/REC-SVG-20010904/DTD/svg10.dtd">
<svg version="1.0" xmlns="http://www.w3.org/2000/svg"
 width="296.000000pt" height="640.000000pt" viewBox="0 0 296.000000 640.000000"
 preserveAspectRatio="xMidYMid meet">

<g transform="translate(0.000000,640.000000) scale(0.100000,-0.100000)"
fill="#000000" stroke="none">
<path d="M1391 6369 c-306 -51 -498 -370 -406 -672 74 -245 337 -401 590 -353
110 22 197 67 271 140 107 108 154 222 154 373 0 204 -113 384 -295 469 -104
48 -200 62 -314 43z"/>
<path d="M970 5179 c-149 -38 -263 -113 -357 -234 -59 -75 -140 -231 -173
-335 -24 -72 -163 -553 -186 -640 -8 -30 -23 -82 -33 -115 -10 -33 -29 -96
-41 -140 -24 -87 -74 -259 -122 -423 -53 -180 -27 -285 85 -341 130 -65 281 3
318 143 6 23 39 140 74 261 35 121 86 299 114 395 27 96 83 293 125 438 42
145 76 265 76 268 0 2 24 4 54 4 l54 0 -28 -97 c-16 -54 -54 -190 -85 -303
-32 -113 -68 -239 -81 -280 -13 -41 -24 -79 -24 -85 0 -5 -16 -64 -35 -130
-58 -199 -186 -646 -201 -705 -8 -30 -30 -107 -48 -170 -59 -201 -176 -616
-176 -623 0 -4 141 -7 314 -7 l315 0 3 -923 3 -922 23 -45 c52 -100 116 -139
225 -140 37 0 82 6 101 14 50 21 101 71 127 124 l23 47 4 923 4 922 64 0 64 0
0 -920 c0 -1002 -3 -950 56 -1027 86 -112 303 -110 389 4 56 73 55 50 55 1035
l0 908 315 0 c256 0 315 3 315 13 0 8 -9 43 -19 78 -11 35 -40 138 -66 229
-88 314 -134 476 -215 760 -45 157 -99 350 -122 430 -22 80 -56 197 -74 260
-62 213 -174 613 -174 622 0 5 23 8 52 6 l52 -3 12 -45 c6 -25 51 -180 99
-345 48 -165 98 -340 111 -390 13 -49 30 -108 38 -130 7 -22 42 -141 77 -264
35 -124 72 -238 84 -254 11 -17 37 -44 58 -61 31 -25 49 -31 103 -34 124 -8
211 54 235 167 13 65 17 47 -85 401 -82 286 -99 342 -237 820 -101 350 -137
445 -219 570 -74 111 -158 188 -263 240 -136 66 -170 70 -655 69 -391 0 -433
-2 -502 -20z"/>
</g>
</svg>
