<?xml version="1.0" standalone="no"?>
<!DOCTYPE svg PUBLIC "-//W3C//DTD SVG 20010904//EN"
 "http://www.w3.org/TR/2001/REC-SVG-20010904/DTD/svg10.dtd">
<svg version="1.0" xmlns="http://www.w3.org/2000/svg"
 width="492.000000pt" height="516.000000pt" viewBox="0 0 492.000000 516.000000"
 preserveAspectRatio="xMidYMid meet">

<g transform="translate(0.000000,516.000000) scale(0.100000,-0.100000)"
fill="#000000" stroke="none">
<path d="M1891 4958 c-30 -53 -97 -126 -133 -144 -15 -8 -76 -19 -135 -24
-401 -36 -580 -122 -676 -321 -106 -220 -121 -532 -55 -1149 28 -268 32 -339
32 -580 0 -201 -4 -287 -14 -320 -18 -61 -22 -697 -5 -965 11 -186 10 -204 -7
-265 -31 -108 -67 -323 -72 -427 -5 -84 -4 -90 4 -43 30 170 62 345 65 348 1
2 54 -31 117 -72 266 -175 556 -295 871 -358 97 -20 143 -23 339 -23 198 0
227 -2 224 -15 -3 -8 -8 -58 -11 -111 l-7 -97 28 -6 c16 -3 49 -6 74 -8 l45
-3 13 125 c7 69 14 130 16 135 2 6 37 16 77 24 191 35 468 129 676 231 105 51
134 62 137 50 3 -8 12 -85 22 -170 9 -85 19 -157 22 -160 12 -12 -9 306 -28
416 -27 161 -59 265 -148 484 -94 234 -162 417 -162 436 0 8 5 12 10 9 6 -4
36 1 66 10 50 14 68 28 158 119 83 85 353 319 492 427 95 74 298 281 404 412
74 90 200 269 200 282 0 3 -33 -38 -74 -92 -167 -222 -394 -460 -590 -618 -55
-44 -147 -120 -205 -170 -57 -49 -132 -113 -166 -141 -34 -29 -80 -73 -101
-100 -57 -69 -116 -104 -179 -104 -42 0 -64 8 -129 46 -132 77 -137 78 -184
44 -65 -47 -92 -89 -92 -145 0 -39 5 -54 27 -77 29 -31 18 -37 -32 -18 -31 12
-64 79 -65 129 0 35 70 196 111 252 11 16 19 32 16 35 -3 3 -17 -14 -31 -38
-17 -28 -36 -46 -58 -54 -24 -8 -45 -29 -76 -75 -59 -88 -69 -126 -53 -197 31
-133 25 -150 -28 -83 -40 51 -50 79 -58 167 l-6 74 48 72 c76 115 161 223 202
258 37 30 37 31 8 20 -43 -16 -58 -32 -157 -163 -121 -162 -122 -165 -113
-257 10 -106 9 -134 -10 -169 -17 -34 -78 -78 -83 -61 -2 6 6 84 19 173 25
180 29 192 136 366 87 143 110 171 136 171 13 0 66 -18 119 -39 245 -100 341
-116 418 -67 51 33 235 216 290 291 21 28 68 86 105 130 78 94 336 434 419
552 63 91 100 116 196 132 l55 9 -45 1 c-82 2 -154 -31 -196 -90 l-20 -29 -98
87 c-301 265 -611 482 -688 483 -23 0 -24 4 -47 111 -65 302 -67 502 -5 620
l15 30 57 -32 c89 -50 133 -88 541 -472 211 -199 414 -389 450 -422 l66 -60
-75 84 c-68 76 -541 534 -763 739 -179 164 -303 221 -602 272 -195 33 -250 55
-315 120 -30 30 -60 64 -67 75 -9 16 -9 12 0 -18 14 -48 78 -122 126 -146 45
-23 111 -38 226 -51 102 -12 237 -42 291 -65 29 -12 35 -19 29 -32 -30 -69
-47 -166 -48 -273 0 -123 14 -214 65 -415 16 -66 38 -157 48 -203 l18 -82 -21
-5 c-12 -2 -60 -11 -107 -20 -259 -48 -552 -161 -771 -295 l-97 -60 -86 0 -86
0 -110 66 c-235 141 -586 270 -816 300 -28 3 -56 9 -63 13 -7 5 6 75 44 231
75 310 88 409 74 555 -5 44 -17 107 -29 139 -11 33 -20 62 -20 66 0 9 88 36
176 54 39 8 131 20 205 26 184 16 232 44 294 175 31 67 29 81 -4 23z m-665
-373 c47 -149 25 -365 -81 -798 -66 -267 -58 -390 39 -622 72 -173 116 -390
123 -610 10 -301 -23 -433 -226 -897 -66 -152 -124 -289 -128 -305 -7 -28 -7
-27 -15 12 -5 22 -11 211 -14 420 -6 331 -4 402 12 550 29 265 25 578 -14 995
-51 551 -52 789 -2 987 39 153 124 278 226 331 36 19 40 20 52 4 7 -9 20 -39
28 -67z m2146 -730 c143 -73 441 -299 655 -496 l43 -39 -132 -183 c-112 -156
-281 -374 -384 -497 -75 -89 -215 -225 -268 -261 -54 -36 -65 -40 -115 -37
-56 3 -56 3 -61 38 -3 19 -2 94 2 165 11 210 76 478 153 627 85 164 103 357
52 568 -16 63 -30 123 -33 133 -8 25 12 21 88 -18z m-2112 -210 c194 -37 437
-118 610 -205 94 -47 250 -138 250 -147 0 -2 -24 -39 -52 -81 -145 -209 -295
-300 -481 -290 -67 4 -95 11 -151 37 -133 64 -248 211 -292 371 -18 66 -26
303 -11 327 4 6 15 9 25 7 9 -2 55 -11 102 -19z m2057 -2 c11 -46 8 -223 -6
-288 -7 -33 -30 -97 -52 -142 -51 -107 -147 -206 -246 -255 -64 -31 -73 -33
-178 -33 -108 0 -113 1 -188 38 -53 26 -99 59 -145 105 -62 61 -172 204 -172
223 0 13 178 115 304 175 140 66 377 146 516 173 58 11 114 22 125 24 11 3 23
5 27 6 4 0 11 -11 15 -26z m-971 -415 c51 -83 183 -220 254 -263 173 -105 391
-80 550 62 33 30 51 40 46 28 -5 -11 -15 -40 -23 -64 -19 -52 -74 -91 -172
-121 -117 -37 -203 -26 -479 59 -222 69 -275 78 -364 63 -39 -7 -155 -37 -257
-66 -238 -69 -294 -80 -385 -74 -55 4 -89 13 -137 36 -90 43 -97 51 -123 131
l-23 72 56 -55 c149 -141 376 -177 537 -85 110 64 243 199 294 300 l20 39 84
0 83 0 39 -62z m94 -292 c339 -106 317 -101 440 -101 120 0 128 2 262 73 3 2
0 -21 -7 -50 -25 -95 -45 -261 -46 -380 -1 -82 -4 -118 -12 -118 -17 0 -86 22
-214 69 -62 22 -125 40 -140 40 -16 -1 -47 2 -69 6 -41 7 -42 7 -81 -46 -65
-88 -161 -253 -177 -305 -9 -27 -22 -85 -29 -129 l-13 -80 -150 -3 c-157 -4
-833 15 -920 25 l-52 6 28 83 c60 176 79 341 68 574 -4 82 -15 181 -26 228
-11 45 -16 82 -11 82 4 0 24 -11 44 -24 20 -14 70 -32 112 -42 114 -25 218
-11 460 62 287 87 341 90 533 30z m234 -482 c12 -5 4 -23 -41 -92 -31 -48 -80
-127 -109 -177 -51 -86 -54 -95 -68 -208 -14 -118 -32 -167 -61 -167 -27 0
-24 133 6 249 19 73 34 105 137 279 66 112 91 133 136 116z m116 -319 c0 -3
-16 -37 -35 -75 -19 -38 -35 -79 -35 -90 0 -13 -7 -20 -18 -20 -10 0 -23 -5
-30 -12 -9 -9 -12 -6 -12 13 0 24 56 127 92 169 17 18 38 27 38 15z m234 -101
c67 -43 65 -47 -41 -63 -86 -13 -143 -14 -143 -2 0 13 98 101 112 101 8 0 40
-16 72 -36z m125 -68 c13 -7 19 -16 14 -19 -5 -3 -83 -8 -174 -11 l-164 -5
105 14 c58 8 119 18 135 24 41 13 56 12 84 -3z m-424 -36 c3 -6 -4 -10 -17
-10 -18 0 -20 2 -8 10 19 12 18 12 25 0z m-1415 -71 l0 -59 -52 5 c-28 3 -52
7 -53 8 -1 1 1 27 3 57 l4 55 49 -3 49 -4 0 -59z m1793 4 l5 -63 -54 0 -54 0
0 59 0 60 48 3 c26 2 48 3 48 3 1 0 4 -28 7 -62z m90 35 c9 -18 19 -45 22 -60
7 -26 5 -28 -26 -29 -19 0 -42 -2 -51 -4 -12 -2 -18 3 -18 14 0 10 -3 39 -6
65 l-7 46 36 0 c29 0 37 -5 50 -32z m-1768 10 c2 -2 1 -29 -2 -60 -4 -44 -9
-55 -22 -53 -9 2 -31 4 -48 4 l-33 1 0 61 0 60 50 -4 c28 -3 53 -6 55 -9z
m1565 -51 l0 -63 -50 0 c-39 -1 -50 2 -51 15 0 9 -3 34 -5 55 -6 46 -1 50 60
54 l46 2 0 -63z m-1450 -7 l0 -60 -56 0 -56 0 6 31 c3 17 6 44 6 60 0 28 2 29
50 29 l50 0 0 -60z m120 24 c0 -17 -3 -45 -6 -62 -6 -30 -8 -31 -55 -29 l-49
2 0 63 0 63 55 -3 c54 -3 55 -3 55 -34z m112 -35 l-4 -59 -49 0 -49 0 0 63 0
62 52 -3 53 -4 -3 -59z m973 35 c8 -20 15 -47 15 -60 0 -21 -5 -24 -33 -24
-31 0 -35 3 -46 43 -7 23 -15 50 -17 60 -4 14 1 17 30 17 32 0 37 -4 51 -36z
m125 4 c0 -30 0 -31 -20 -13 -11 10 -20 24 -20 32 0 7 9 13 20 13 16 0 20 -7
20 -32z m-980 -38 l0 -60 -56 0 -57 0 7 38 c3 20 6 47 6 60 0 20 5 22 50 22
l50 0 0 -60z m120 0 l0 -60 -55 0 -55 0 0 60 0 60 55 0 55 0 0 -60z m116 38
c-3 -13 -6 -40 -6 -60 l0 -38 -50 0 -50 0 0 60 0 60 56 0 c54 0 56 -1 50 -22z
m114 -40 l0 -58 -50 0 -50 0 0 60 0 61 50 -2 50 -3 0 -58z m120 0 c0 -45 -3
-59 -10 -48 -6 10 -10 11 -10 3 0 -8 -15 -13 -40 -13 -37 0 -40 2 -40 29 0 16
-3 43 -6 60 l-6 31 56 0 56 0 0 -62z m-1173 -20 c-3 -7 -5 -2 -5 12 0 14 2 19
5 13 2 -7 2 -19 0 -25z m1401 -11 c2 -10 -4 -20 -13 -23 -21 -9 -28 0 -20 26
8 24 28 22 33 -3z m272 -10 c8 -3 -9 -6 -37 -6 -46 -1 -53 2 -53 18 0 19 8 18
90 -12z m-888 -30 l456 -2 -5 -27 c-4 -22 -2 -28 11 -28 28 0 83 27 94 46 6
11 13 16 16 14 6 -7 -92 -1111 -99 -1119 -3 -2 -81 -7 -173 -9 -260 -6 -490
32 -739 123 -144 53 -382 173 -515 260 l-117 76 15 52 c37 128 63 196 151 397
52 118 99 222 103 230 7 14 27 14 177 2 103 -9 345 -14 625 -15z m458 23 c0
-5 -4 -10 -10 -10 -5 0 -10 5 -10 10 0 6 5 10 10 10 6 0 10 -4 10 -10z m878
-218 c93 -232 127 -337 161 -495 l19 -88 -116 -58 c-208 -104 -457 -193 -674
-240 l-88 -19 0 27 c0 15 13 175 29 356 44 485 52 619 40 654 -7 21 -7 36 1
50 10 20 20 21 193 22 150 1 261 7 333 17 6 1 52 -101 102 -226z m-693 208 c3
-5 1 -10 -4 -10 -6 0 -11 5 -11 10 0 6 2 10 4 10 3 0 8 -4 11 -10z m-28 -16
c-3 -3 -12 -4 -19 -1 -8 3 -5 6 6 6 11 1 17 -2 13 -5z m66 -46 c9 -11 17 -34
17 -52 l0 -31 -57 5 c-38 3 -58 9 -57 18 1 6 2 30 3 52 l1 41 38 -7 c20 -3 45
-15 55 -26z m-5 -94 c18 -5 22 -13 22 -43 0 -53 -8 -59 -71 -53 -46 3 -56 7
-54 21 2 9 4 31 4 49 1 30 3 32 39 32 20 0 47 -3 60 -6z m-10 -114 c20 0 22
-5 22 -50 0 -48 -1 -50 -27 -50 -16 0 -44 3 -63 6 l-35 6 4 50 3 50 37 -6 c20
-3 46 -6 59 -6z m-25 -110 l37 0 0 -53 0 -54 -57 5 c-32 2 -61 7 -64 11 -3 3
-4 28 -1 54 4 44 6 48 26 43 11 -3 38 -6 59 -6z m3 -116 c28 -5 29 -7 26 -55
l-4 -50 -61 7 c-34 4 -63 7 -64 8 0 0 1 22 4 49 5 45 7 47 38 47 18 0 45 -3
61 -6z m-6 -114 c24 0 25 -2 21 -51 l-3 -52 -61 7 c-33 3 -61 7 -62 9 -1 1 0
24 3 51 l4 48 37 -6 c20 -3 47 -6 61 -6z m5 -114 c6 -2 9 -26 7 -53 l-4 -50
-56 5 c-32 2 -60 7 -63 11 -3 3 -4 27 -1 52 l4 46 51 -4 c29 -3 57 -6 62 -7z
m-29 -112 c28 -5 29 -7 26 -55 l-4 -50 -61 7 c-34 4 -63 7 -64 8 0 0 1 22 4
49 5 45 7 47 38 47 18 0 45 -3 61 -6z m-8 -114 c20 0 22 -5 22 -51 l0 -52 -62
7 c-34 3 -62 7 -64 9 -1 1 0 24 3 51 l6 48 36 -6 c20 -3 46 -6 59 -6z m-32
-110 l44 0 0 -39 c0 -64 -3 -67 -68 -61 -53 5 -57 7 -56 30 1 14 2 38 3 54 1
21 5 27 17 22 9 -3 36 -6 60 -6z m3 -116 c28 -6 31 -10 31 -43 0 -55 -8 -61
-74 -54 -52 5 -57 8 -52 27 3 12 6 33 6 49 0 23 4 27 29 27 16 0 43 -3 60 -6z
m0 -114 c22 0 23 -3 17 -46 -3 -26 -7 -49 -10 -52 -3 -2 -31 -1 -62 3 l-56 7
6 30 c3 17 6 40 6 51 0 17 5 19 38 13 20 -3 48 -6 61 -6z"/>
</g>
</svg>
