<?xml version="1.0" standalone="no"?>
<!DOCTYPE svg PUBLIC "-//W3C//DTD SVG 20010904//EN"
 "http://www.w3.org/TR/2001/REC-SVG-20010904/DTD/svg10.dtd">
<svg version="1.0" xmlns="http://www.w3.org/2000/svg"
 width="200.000000pt" height="200.000000pt" viewBox="0 0 200.000000 200.000000"
 preserveAspectRatio="xMidYMid meet">

<g transform="translate(0.000000,200.000000) scale(0.100000,-0.100000)"
fill="#000000" stroke="none">
<path d="M1390 1986 c-19 -7 -62 -27 -95 -43 -73 -36 -113 -45 -154 -33 -30 8
-31 8 -30 -23 0 -18 8 -74 17 -126 16 -91 18 -95 47 -103 44 -12 84 -2 182 45
73 35 98 42 146 42 l59 -1 -66 64 -66 64 35 48 c20 27 41 51 48 54 21 8 -15
26 -53 25 -19 0 -51 -6 -70 -13z"/>
<path d="M1014 1905 c-4 -9 19 -182 50 -386 32 -204 56 -373 54 -374 -2 -2
-34 -5 -72 -6 l-70 -2 -33 44 c-87 114 -101 126 -165 148 -88 30 -112 28 -137
-12 -20 -33 -20 -33 -1 -167 11 -74 22 -147 24 -162 4 -20 -2 -36 -21 -59
l-27 -32 -26 32 -27 31 24 165 24 165 -23 31 c-23 30 -24 31 -85 24 l-62 -6
-46 42 c-32 29 -63 77 -107 161 -63 122 -80 138 -127 123 -44 -14 -38 -51 27
-180 58 -114 68 -128 166 -222 l106 -101 2 -409 c2 -224 7 -415 11 -424 6 -12
-6 -24 -55 -54 -94 -57 -408 -265 -408 -271 0 -2 448 -4 995 -4 l996 0 -3 137
-3 138 -100 67 c-212 143 -505 272 -647 284 -78 7 -166 -12 -296 -66 -53 -21
-97 -38 -97 -37 -1 1 -20 68 -43 149 -42 146 -42 149 -42 311 0 139 3 167 16
178 14 11 18 11 28 -2 6 -8 33 -44 60 -78 l49 -64 108 6 108 6 7 -47 c37 -251
50 -315 66 -326 13 -8 21 -7 32 4 13 13 12 36 -11 191 l-26 176 21 21 c12 12
22 28 22 35 0 19 -29 57 -45 57 -19 0 -17 -9 -76 385 -28 193 -56 360 -60 373
-10 25 -46 30 -55 7z m-384 -1128 c0 -2 22 -74 50 -162 27 -87 49 -159 47
-160 -23 -14 -118 -65 -122 -65 -8 0 -6 376 2 383 6 7 23 10 23 4z"/>
<path d="M529 1666 c-101 -69 -85 -218 28 -268 132 -58 261 82 195 212 -39 79
-149 106 -223 56z"/>
</g>
</svg>
