<?xml version="1.0" standalone="no"?>
<!DOCTYPE svg PUBLIC "-//W3C//DTD SVG 20010904//EN"
 "http://www.w3.org/TR/2001/REC-SVG-20010904/DTD/svg10.dtd">
<svg version="1.0" xmlns="http://www.w3.org/2000/svg"
 width="178.000000pt" height="264.000000pt" viewBox="0 0 178.000000 264.000000"
 preserveAspectRatio="xMidYMid meet">
<metadata>
Created by potrace 1.16, written by Peter Selinger 2001-2019
</metadata>
<g transform="translate(0.000000,264.000000) scale(0.100000,-0.100000)"
fill="#000000" stroke="none">
<path d="M780 1213 c-55 -38 -76 -61 -104 -115 -26 -51 -37 -148 -16 -148 6 0
10 -7 10 -15 0 -26 34 -83 62 -101 15 -10 24 -22 21 -28 -3 -5 -1 -6 5 -2 6 4
25 0 41 -9 17 -8 55 -15 86 -15 31 0 69 7 86 15 16 9 34 13 40 10 5 -4 8 -3 7
2 -2 4 11 22 27 38 34 34 55 68 55 90 0 8 4 15 8 15 4 0 5 32 1 71 -7 83 -38
134 -109 184 -40 28 -53 32 -115 32 -58 0 -76 -5 -105 -24z"/>
<path d="M654 655 c-54 -42 -107 -85 -116 -97 -27 -30 -22 -70 10 -101 32 -30
67 -34 100 -11 12 8 22 12 22 9 0 -3 11 7 25 22 23 26 26 26 36 11 9 -16 28
-18 154 -18 127 0 145 2 154 18 7 10 14 13 18 7 18 -24 91 -65 115 -65 36 0
78 42 78 78 0 39 -17 57 -135 147 l-99 75 -132 0 -131 0 -99 -75z"/>
<path d="M678 331 c-60 -73 -60 -95 -5 -187 80 -133 101 -146 159 -95 36 31
37 74 3 136 l-24 47 25 34 26 33 -22 30 c-28 40 -59 61 -90 61 -18 0 -37 -15
-72 -59z"/>
<path d="M966 369 c-14 -11 -33 -33 -41 -48 -12 -25 -12 -30 9 -56 l23 -29
-29 -62 c-31 -66 -29 -85 9 -130 18 -20 90 -33 78 -13 -4 5 0 9 8 9 16 0 110
162 117 203 4 25 -4 39 -49 88 -60 65 -82 72 -125 38z"/>
</g>
</svg>
