<?xml version="1.0" standalone="no"?>
<!DOCTYPE svg PUBLIC "-//W3C//DTD SVG 20010904//EN"
 "http://www.w3.org/TR/2001/REC-SVG-20010904/DTD/svg10.dtd">
<svg version="1.0" xmlns="http://www.w3.org/2000/svg"
 width="126.000000pt" height="264.000000pt" viewBox="0 0 126.000000 264.000000"
 preserveAspectRatio="xMidYMid meet">

<g transform="translate(0.000000,264.000000) scale(0.100000,-0.100000)"
fill="#000000" stroke="none">
<path d="M526 2240 c-66 -26 -113 -72 -147 -146 -26 -58 -30 -62 -69 -68 -57
-9 -120 -36 -120 -51 0 -44 121 -69 345 -69 181 -1 269 10 328 40 24 13 27 20
27 62 0 62 -39 141 -92 186 -76 65 -179 82 -272 46z"/>
<path d="M821 1894 c-60 -19 -261 -34 -355 -27 -87 7 -85 8 -60 -76 21 -72 83
-134 155 -155 66 -20 82 -20 147 -1 62 19 115 63 144 118 21 42 37 158 22 156
-5 -1 -29 -7 -53 -15z"/>
<path d="M314 1522 c-12 -9 -82 -117 -158 -239 -117 -191 -136 -227 -136 -263
0 -83 94 -131 166 -85 11 7 58 75 105 151 l84 138 5 -576 c5 -626 2 -593 63
-625 41 -21 90 -10 121 28 l26 31 0 268 c0 231 2 271 16 284 18 19 45 21 62 4
9 -9 12 -83 12 -270 0 -288 5 -314 60 -343 41 -21 89 -13 121 21 l24 26 5 576
5 577 90 -145 c78 -125 95 -147 125 -156 86 -28 170 52 140 131 -19 49 -272
455 -293 470 -18 13 -71 15 -322 15 -269 0 -302 -2 -321 -18z"/>
</g>
</svg>
