<?xml version="1.0" standalone="no"?>
<!DOCTYPE svg PUBLIC "-//W3C//DTD SVG 20010904//EN"
 "http://www.w3.org/TR/2001/REC-SVG-20010904/DTD/svg10.dtd">
<svg version="1.0" xmlns="http://www.w3.org/2000/svg"
 width="242.000000pt" height="636.000000pt" viewBox="0 0 242.000000 636.000000"
 preserveAspectRatio="xMidYMid meet">

<g transform="translate(0.000000,636.000000) scale(0.100000,-0.100000)"
fill="#000000" stroke="none">
<path d="M1125 6338 c-184 -19 -361 -173 -420 -365 -24 -77 -21 -236 6 -314
73 -213 261 -349 484 -350 168 -1 284 48 397 168 162 174 175 469 29 662 -118
156 -281 222 -496 199z"/>
<path d="M585 5156 c-178 -28 -300 -83 -387 -174 -75 -80 -93 -108 -132 -209
-60 -155 -61 -171 -61 -1103 l0 -845 22 -42 c77 -144 292 -153 378 -16 l30 48
3 767 2 768 65 0 65 0 2 -2062 3 -2063 21 -45 c26 -57 86 -117 143 -142 67
-31 171 -29 236 5 64 32 111 79 139 137 l21 45 3 1223 2 1222 65 0 65 0 2
-1222 c3 -1221 3 -1223 24 -1268 49 -103 144 -164 259 -164 112 -1 202 57 256
162 l24 47 3 2063 2 2062 65 0 65 0 0 -762 c0 -721 1 -765 19 -803 51 -111
185 -156 298 -100 56 28 95 77 112 140 15 54 15 1544 0 1686 -22 223 -80 365
-193 475 -96 94 -222 147 -411 174 -105 15 -1111 11 -1210 -4z"/>
</g>
</svg>
