<?xml version="1.0" standalone="no"?>
<!DOCTYPE svg PUBLIC "-//W3C//DTD SVG 20010904//EN"
 "http://www.w3.org/TR/2001/REC-SVG-20010904/DTD/svg10.dtd">
<svg version="1.0" xmlns="http://www.w3.org/2000/svg"
 width="501.000000pt" height="353.000000pt" viewBox="0 0 501.000000 353.000000"
 preserveAspectRatio="xMidYMid meet">

<g transform="translate(0.000000,353.000000) scale(0.100000,-0.100000)"
fill="#000000" stroke="none">
<path d="M4175 3518 c-2 -7 -25 -80 -50 -163 -53 -173 -84 -226 -190 -330
-134 -132 -396 -319 -628 -450 -59 -33 -107 -63 -107 -67 0 -19 38 -3 152 63
257 149 467 301 600 433 66 65 67 66 62 33 -3 -17 -14 -93 -25 -167 -33 -215
-37 -491 -9 -741 19 -173 21 -210 10 -258 -20 -92 -57 -187 -91 -237 -68 -99
-372 -384 -410 -384 -9 0 -134 -54 -294 -128 -113 -52 -287 -141 -305 -157
-27 -24 -463 -236 -476 -231 -6 2 -14 19 -18 38 -16 84 -125 273 -302 524 -91
128 -218 219 -482 346 -92 44 -168 82 -170 83 -5 4 -42 175 -42 191 0 7 30 13
81 17 105 8 226 42 424 118 88 34 211 80 272 103 107 39 136 56 95 56 -10 0
-72 -21 -137 -46 -66 -25 -185 -71 -265 -101 -329 -126 -494 -137 -640 -43
-64 41 -184 169 -284 301 -78 104 -96 122 -96 98 0 -26 217 -298 285 -358 60
-52 139 -99 189 -113 l45 -12 22 -93 c12 -52 19 -96 17 -99 -3 -2 -87 33 -187
78 -126 57 -203 99 -249 135 -110 86 -210 152 -247 162 -19 5 -67 29 -107 53
-91 55 -149 72 -231 66 -61 -4 -71 -8 -197 -91 -89 -59 -141 -87 -161 -87 -19
0 -29 -5 -29 -14 0 -32 75 -4 190 72 161 106 188 114 291 88 53 -14 169 -73
169 -87 0 -4 -14 -9 -32 -13 -80 -16 -545 -233 -531 -247 6 -6 71 20 164 65
187 89 378 166 430 173 47 7 69 -6 234 -129 118 -88 228 -144 605 -308 199
-87 394 -205 480 -292 84 -83 301 -422 356 -555 31 -77 31 -101 -2 -113 -82
-31 -217 -41 -292 -21 -29 8 -49 24 -76 59 l-37 47 45 7 c45 6 126 52 134 76
6 20 -15 14 -63 -20 -40 -29 -54 -33 -106 -32 -52 1 -66 6 -116 40 -49 34
-163 156 -163 174 0 4 18 21 40 39 37 29 80 95 80 121 0 5 -7 10 -15 10 -8 0
-15 -9 -15 -20 0 -11 -24 -45 -52 -74 l-53 -54 -142 23 c-157 25 -203 43 -278
107 l-50 42 3 138 c4 119 2 138 -11 138 -13 0 -15 -19 -15 -123 1 -136 -8
-165 -62 -211 -29 -24 -39 -26 -117 -26 l-86 0 36 27 c37 29 67 80 67 113 0
29 -17 24 -25 -7 -10 -42 -42 -81 -89 -108 -24 -14 -46 -25 -49 -25 -4 0 -7
21 -7 48 0 26 -7 148 -16 272 -15 203 -23 254 -39 238 -3 -2 2 -88 11 -189 8
-101 16 -256 17 -344 l2 -160 -34 -67 c-18 -36 -45 -81 -60 -98 l-26 -32 3
134 c3 97 -2 171 -17 272 -11 76 -23 141 -26 144 -16 16 -17 -20 -2 -121 25
-164 32 -321 17 -390 -11 -57 -12 -58 -31 -41 -15 14 -19 31 -19 83 0 69 -25
227 -40 251 -18 30 -21 0 -6 -71 21 -106 32 -234 18 -225 -6 3 -13 2 -17 -4
-6 -10 3 -19 71 -75 39 -31 64 -82 64 -128 0 -35 1 -35 30 -27 44 13 111 -10
192 -66 76 -52 105 -51 43 2 -58 48 -139 86 -196 92 -44 4 -49 7 -49 28 0 22
4 24 48 24 49 0 147 -13 195 -25 20 -5 27 -4 27 8 0 14 -83 31 -200 40 l-35 3
30 14 c20 9 62 14 123 14 50 -1 92 2 92 6 0 26 -169 27 -226 1 -23 -10 -45
-24 -49 -31 -5 -9 -14 -4 -29 15 l-22 27 38 42 c22 22 57 76 78 120 33 64 40
89 40 135 l0 56 78 -3 c87 -4 95 -10 138 -94 29 -56 30 -99 6 -193 -13 -49
-16 -79 -10 -100 18 -64 29 -275 19 -361 -15 -124 -55 -187 -146 -231 -36 -18
-224 -93 -268 -107 -18 -6 -24 -26 -7 -26 17 0 214 77 281 109 63 32 109 72
134 121 34 66 46 285 23 425 -15 93 -14 116 7 210 20 89 16 112 -35 196 l-28
46 49 12 c48 12 50 12 106 -23 172 -106 259 -174 333 -262 42 -49 98 -104 126
-122 27 -18 56 -48 64 -65 67 -148 87 -185 129 -241 27 -35 55 -82 61 -103 27
-82 77 -139 150 -172 87 -40 174 -19 243 57 20 23 37 46 37 51 0 4 152 12 338
16 185 4 348 8 362 10 14 1 451 3 973 4 834 1 947 3 947 16 0 12 -19 15 -115
15 l-115 0 0 50 c0 28 -4 50 -10 50 -5 0 -10 -22 -10 -50 l0 -50 -70 0 -70 0
0 50 c0 28 -4 50 -10 50 -5 0 -10 -22 -10 -50 l0 -50 -55 0 -55 0 0 56 c0 34
-4 53 -10 49 -5 -3 -10 -28 -10 -56 l0 -49 -75 0 -75 0 0 52 c0 38 -3 49 -11
41 -6 -6 -10 -30 -7 -52 l4 -41 -53 0 -53 0 0 50 c0 28 -4 50 -10 50 -5 0 -10
-15 -10 -34 0 -62 -5 -66 -81 -66 l-69 0 0 55 c0 30 -4 55 -9 55 -5 0 -8 -25
-5 -55 l4 -55 -60 0 -60 0 3 46 c1 30 -2 48 -10 51 -9 3 -13 -10 -13 -46 l0
-51 -64 0 -65 0 -4 53 -3 52 -2 -52 -2 -53 -66 0 -66 0 3 43 c2 23 -1 43 -7
45 -5 1 -10 -18 -12 -43 l-3 -45 -69 0 -69 0 -4 53 -3 52 -2 -52 -2 -53 -60 0
-60 0 0 51 c0 31 -4 48 -10 44 -5 -3 -10 -26 -10 -49 l0 -43 -62 -6 c-62 -5
-83 3 -74 29 2 6 1 26 -4 45 -7 31 -8 28 -9 -23 l-1 -58 -59 0 -60 0 -3 47
c-4 66 -28 70 -28 4 l0 -51 -49 0 c-27 0 -63 -3 -80 -6 l-31 -6 0 51 c0 28 -4
51 -10 51 -5 0 -10 -22 -10 -50 l0 -50 -60 0 -60 0 0 45 c0 25 -4 45 -10 45
-5 0 -10 -20 -10 -44 l0 -43 -57 -6 c-33 -3 -60 -2 -63 4 -4 5 -7 30 -9 56 -3
70 -11 66 -11 -5 l0 -62 -37 0 c-68 0 -83 9 -83 46 0 21 -5 34 -13 34 -9 0
-12 -11 -9 -35 l4 -35 -60 0 c-89 0 -92 2 -92 71 0 33 -4 59 -10 59 -6 0 -10
-27 -10 -60 0 -66 2 -65 -75 -52 -36 7 -41 11 -45 40 -6 41 -26 42 -22 1 3
-28 2 -29 -25 -23 -40 10 -75 29 -97 53 -15 17 -19 34 -17 76 1 34 -2 55 -8
55 -6 0 -11 -20 -11 -47 l0 -48 -27 40 c-30 44 -114 207 -110 212 2 1 35 -11
74 -27 39 -16 93 -35 122 -41 29 -6 51 -16 51 -24 0 -7 9 -15 20 -18 15 -4 20
-14 20 -41 0 -20 5 -36 10 -36 6 0 10 16 10 35 l0 36 133 -6 c72 -4 138 -8
145 -11 6 -2 12 -19 12 -39 0 -19 5 -35 10 -35 6 0 10 18 10 40 0 40 0 40 38
40 22 0 80 3 130 6 l92 7 0 -36 c0 -20 5 -39 10 -42 6 -4 10 10 10 34 0 48 -2
47 183 56 l127 7 0 -41 c0 -23 5 -41 10 -41 6 0 10 20 10 45 l0 45 105 2 c203
4 180 9 183 -39 4 -57 22 -55 22 2 l0 45 135 0 135 0 0 -45 c0 -25 5 -45 10
-45 6 0 10 20 10 45 l0 45 135 0 135 0 0 -45 c0 -25 5 -45 10 -45 6 0 10 20
10 45 l0 45 103 0 c56 0 118 -3 137 -6 34 -6 36 -8 32 -40 -5 -45 14 -44 22 1
l7 35 136 0 136 0 -6 -36 c-4 -25 -2 -34 6 -31 7 2 13 18 15 35 l3 32 135 0
134 0 0 -35 c0 -47 18 -45 22 3 l3 37 138 3 c75 1 137 6 137 11 0 8 -1518 23
-1660 16 -47 -2 -141 -5 -210 -6 -69 -1 -155 -5 -192 -8 -38 -4 -68 -5 -68 -4
0 2 30 17 68 34 225 103 689 347 838 442 119 75 285 369 296 525 2 33 18 57
18 28 0 -30 72 -252 106 -325 49 -106 167 -222 287 -281 55 -28 92 -40 104
-36 13 5 -6 18 -76 52 -78 37 -107 58 -176 127 -132 132 -156 196 -291 767 -9
36 -19 67 -24 70 -5 3 -16 71 -24 150 -33 322 -30 441 19 787 21 150 30 187
56 235 25 48 119 331 119 359 0 14 -20 11 -25 -3z m-130 -1678 c3 -25 9 -53
12 -63 4 -16 2 -17 -16 -5 -15 9 -23 10 -32 1 -16 -16 11 -55 34 -49 15 4 17
-4 17 -67 0 -93 -12 -112 -34 -57 -9 22 -20 39 -25 35 -5 -3 2 -29 16 -57 l25
-53 -22 -68 c-21 -66 -22 -68 -37 -48 -21 31 -35 16 -16 -18 16 -27 15 -30
-16 -84 -18 -32 -36 -55 -40 -53 -4 3 -16 23 -26 46 -10 22 -22 40 -27 40 -12
0 -11 -4 19 -64 l27 -55 -40 -48 c-22 -25 -45 -48 -50 -50 -6 -2 -18 13 -27
32 -10 20 -22 33 -27 30 -6 -4 -2 -22 11 -47 17 -33 18 -43 7 -49 -7 -5 -32
-20 -55 -34 l-43 -26 -22 46 c-12 25 -26 45 -30 45 -12 0 -10 -4 16 -54 l23
-44 -47 -26 -48 -26 -22 37 c-27 44 -39 29 -15 -17 9 -18 15 -33 13 -34 -12
-9 -90 -46 -96 -46 -5 0 -19 21 -31 48 -13 26 -26 42 -28 35 -2 -6 5 -30 16
-52 12 -22 21 -42 21 -45 0 -3 -22 -16 -49 -30 l-49 -24 -16 39 c-9 21 -20 39
-26 39 -14 0 -12 -20 5 -50 8 -14 14 -28 15 -32 0 -8 -80 -52 -85 -46 -1 2
-12 23 -24 46 -13 24 -25 42 -27 39 -3 -3 4 -23 15 -46 12 -22 21 -43 21 -45
0 -3 -22 -17 -50 -31 l-50 -25 -20 40 c-11 22 -25 40 -30 40 -14 0 -13 -5 10
-50 l20 -40 -40 -20 c-21 -11 -44 -20 -49 -20 -6 0 -22 21 -35 48 -16 30 -25
40 -25 27 -1 -11 8 -33 19 -50 11 -16 20 -33 20 -36 0 -7 -67 -39 -83 -39 -7
0 -21 14 -30 30 -10 17 -22 30 -28 30 -14 0 -11 -12 11 -40 11 -14 20 -28 20
-31 0 -9 -76 -39 -98 -39 -9 0 -28 16 -41 35 -30 45 -49 46 -22 1 12 -18 21
-36 21 -40 0 -11 -116 -6 -128 6 -9 9 -15 8 -24 -4 -10 -12 -40 -17 -144 -21
l-131 -5 -11 43 c-7 27 -18 45 -29 48 -14 4 -13 5 4 6 29 1 140 39 176 60 28
16 29 15 56 -17 34 -39 49 -31 19 11 -25 35 -36 25 113 98 l96 47 24 -39 c13
-22 27 -39 31 -39 13 0 9 13 -12 48 -11 18 -20 35 -20 37 0 3 30 20 68 39 37
19 81 44 97 55 42 29 49 27 70 -19 10 -22 22 -40 28 -40 6 0 6 -5 -1 -12 -11
-14 10 -42 22 -30 4 3 4 -1 0 -11 -3 -10 -1 -17 5 -17 20 0 24 30 6 50 -10 11
-28 42 -41 70 l-24 51 105 50 c58 28 109 48 114 45 5 -4 15 -22 21 -41 6 -19
16 -35 21 -35 13 0 11 15 -6 57 -8 20 -14 37 -13 39 13 11 200 84 207 80 4 -3
14 -19 21 -36 12 -30 30 -41 30 -17 -1 6 -7 23 -15 37 -8 14 -14 28 -15 31 0
3 21 15 48 27 26 12 75 44 109 71 l61 49 17 -39 c10 -21 22 -39 27 -39 13 0 9
29 -8 55 -9 13 -14 28 -12 33 1 5 42 51 91 102 l87 93 25 -27 c13 -14 19 -28
14 -31 -15 -10 -10 -28 6 -21 10 4 15 -1 15 -14 0 -11 5 -20 10 -20 17 0 11
22 -19 80 l-29 54 30 44 c16 24 42 76 56 116 17 46 32 71 40 69 14 -5 16 9 2
23 -5 5 -7 27 -3 48 7 45 18 32 28 -34z m-2720 -740 c40 -19 95 -34 165 -45
160 -24 155 -21 198 -78 60 -79 132 -145 185 -170 64 -29 127 -116 120 -164
-4 -26 -10 -33 -28 -33 -69 0 -282 95 -344 153 -18 18 -59 64 -91 103 -47 57
-89 91 -207 171 -81 54 -156 102 -166 106 -17 7 -17 9 3 37 l22 31 41 -41 c23
-23 69 -54 102 -70z m751 -825 c47 -8 112 -15 143 -15 84 0 93 -11 51 -55 -19
-20 -47 -43 -62 -51 -37 -19 -105 -17 -154 5 -44 20 -107 88 -123 131 l-9 28
33 -14 c18 -7 73 -20 121 -29z"/>
<path d="M3731 1260 c-18 -11 -6 -60 15 -60 21 0 28 26 12 49 -9 13 -19 17
-27 11z"/>
<path d="M3493 1113 c-7 -2 -13 -14 -13 -25 0 -15 5 -18 16 -14 15 6 15 4 3
-10 -12 -14 -11 -16 6 -13 24 5 33 39 11 39 -10 0 -13 6 -10 15 6 16 6 16 -13
8z"/>
<path d="M3257 993 c-4 -3 -7 -17 -7 -30 0 -17 5 -22 20 -20 29 5 33 13 18 36
-14 22 -20 25 -31 14z"/>
<path d="M2785 750 c-3 -5 0 -10 8 -10 10 0 13 -7 10 -20 -4 -14 0 -20 10 -20
23 0 30 16 17 40 -11 21 -35 27 -45 10z"/>
<path d="M2536 652 c-6 -10 26 -52 39 -52 10 0 4 19 -13 41 -13 15 -21 18 -26
11z"/>
<path d="M4086 481 c-3 -5 0 -11 6 -14 10 -4 11 -7 1 -18 -7 -7 -13 -17 -13
-21 0 -13 35 -9 49 5 11 10 14 9 18 -1 7 -19 23 -4 23 23 0 35 -16 39 -38 9
-19 -27 -19 -27 -18 -4 1 24 -18 38 -28 21z"/>
<path d="M3216 473 c-10 -10 -7 -25 4 -18 6 3 10 2 10 -4 0 -5 -4 -13 -10 -16
-16 -10 -11 -25 8 -25 14 0 19 8 20 29 1 27 -18 47 -32 34z"/>
<path d="M3505 471 c-3 -6 1 -11 11 -11 16 0 16 -1 0 -19 -21 -23 -13 -29 36
-27 34 1 69 16 38 16 -10 0 -10 3 0 15 6 8 9 19 5 25 -8 13 -35 13 -35 0 0 -5
5 -10 11 -10 8 0 8 -5 -1 -15 -18 -22 -30 -18 -27 7 2 24 -26 38 -38 19z"/>
<path d="M3794 469 c-3 -5 0 -9 6 -9 8 0 8 -6 0 -20 -10 -19 -8 -20 33 -20 52
0 56 3 50 35 -4 20 -11 24 -44 23 -22 0 -42 -4 -45 -9z m59 -22 c3 -8 -1 -14
-9 -14 -15 0 -18 9 -7 20 9 9 10 9 16 -6z"/>
<path d="M4370 470 c0 -5 5 -10 12 -10 9 0 9 -3 0 -12 -21 -21 -13 -28 33 -28
44 0 45 1 43 30 -1 17 -8 30 -15 30 -17 0 -29 -23 -15 -28 17 -5 15 -22 -3
-22 -9 0 -15 9 -15 25 0 18 -5 25 -20 25 -11 0 -20 -4 -20 -10z"/>
<path d="M4670 470 c0 -5 5 -10 12 -10 9 0 9 -3 0 -12 -21 -21 -13 -28 32 -28
50 0 58 6 49 39 -7 29 -35 23 -44 -9 l-7 -25 -1 28 c-1 20 -6 27 -21 27 -11 0
-20 -4 -20 -10z"/>
<path d="M2912 453 c10 -13 10 -17 1 -20 -22 -8 -14 -23 12 -23 19 0 23 4 18
18 -3 11 0 9 12 -6 14 -19 20 -21 31 -11 8 7 14 22 12 33 -3 18 -11 21 -51 23
-44 2 -47 0 -35 -14z m65 -25 c-3 -8 -6 -5 -6 6 -1 11 2 17 5 13 3 -3 4 -12 1
-19z"/>
<path d="M3264 454 c3 -9 6 -22 6 -30 0 -8 5 -14 10 -14 6 0 10 14 10 30 0 21
-5 30 -16 30 -11 0 -14 -5 -10 -16z"/>
<path d="M1986 451 c-4 -5 -2 -12 3 -16 6 -3 8 -12 5 -19 -3 -8 -1 -17 5 -21
6 -3 12 3 13 14 0 12 1 26 2 33 1 15 -20 22 -28 9z"/>
<path d="M2030 450 c0 -5 5 -10 10 -10 7 0 7 -6 0 -19 -6 -13 -6 -22 -1 -26
11 -6 31 25 31 49 0 9 -9 16 -20 16 -11 0 -20 -4 -20 -10z"/>
<path d="M2584 420 c1 -36 18 -34 23 3 2 18 -1 27 -10 27 -9 0 -14 -11 -13
-30z"/>
<path d="M2625 438 c-8 -22 2 -53 16 -50 32 8 37 54 6 60 -9 2 -19 -2 -22 -10z"/>
<path d="M2307 433 c-8 -12 4 -63 14 -63 12 0 12 57 0 65 -5 3 -12 2 -14 -2z"/>
<path d="M2347 433 c-3 -4 -4 -19 -3 -33 1 -18 7 -25 21 -25 16 0 20 7 20 30
0 28 -26 48 -38 28z"/>
</g>
</svg>
