<?xml version="1.0" standalone="no"?>
<!DOCTYPE svg PUBLIC "-//W3C//DTD SVG 20010904//EN"
 "http://www.w3.org/TR/2001/REC-SVG-20010904/DTD/svg10.dtd">
<svg version="1.0" xmlns="http://www.w3.org/2000/svg"
 width="178.000000pt" height="264.000000pt" viewBox="0 0 178.000000 264.000000"
 preserveAspectRatio="xMidYMid meet">

<g transform="translate(0.000000,264.000000) scale(0.100000,-0.100000)"
fill="#000000" stroke="none">
<path d="M809 2246 c-170 -60 -215 -289 -81 -407 50 -44 92 -59 164 -59 100 0
172 46 214 135 28 59 31 138 8 193 -47 114 -191 179 -305 138z"/>
<path d="M585 1701 c-29 -12 -45 -34 -117 -161 -108 -190 -105 -180 -116 -334
-11 -146 -8 -168 29 -203 34 -31 70 -37 112 -20 50 21 64 56 75 188 8 89 15
125 33 160 l24 44 5 -647 5 -648 26 -26 c16 -16 41 -28 67 -31 37 -5 45 -2 77
30 l35 35 0 327 c0 206 4 333 10 346 12 21 50 25 68 7 9 -9 12 -96 12 -330 0
-253 3 -326 14 -353 15 -35 59 -65 96 -65 30 0 77 27 90 50 7 13 10 238 10
690 0 368 3 670 7 670 4 0 49 -41 100 -92 l92 -91 6 29 c13 57 30 89 68 126
l39 38 -117 122 c-64 68 -126 128 -138 135 -25 14 -578 17 -612 4z"/>
<path d="M1495 1416 c-39 -18 -80 -62 -99 -108 -14 -32 -16 -118 -16 -646 0
-650 -1 -639 47 -630 17 3 18 37 23 623 5 588 6 621 24 648 38 56 106 72 163
37 43 -26 56 -53 62 -135 5 -57 9 -70 24 -73 32 -6 47 17 47 72 0 28 -5 68
-11 89 -13 47 -63 106 -106 123 -41 18 -119 17 -158 0z"/>
<path d="M1531 1304 c-30 -25 -31 -28 -31 -110 l0 -84 35 0 c69 0 115 43 115
108 0 33 -53 112 -74 112 -8 0 -28 -12 -45 -26z"/>
</g>
</svg>
