<?xml version="1.0" standalone="no"?>
<!DOCTYPE svg PUBLIC "-//W3C//DTD SVG 20010904//EN"
 "http://www.w3.org/TR/2001/REC-SVG-20010904/DTD/svg10.dtd">
<svg version="1.0" xmlns="http://www.w3.org/2000/svg"
 width="918.000000pt" height="980.000000pt" viewBox="0 0 918.000000 980.000000"
 preserveAspectRatio="xMidYMid meet">

<g transform="translate(0.000000,980.000000) scale(0.100000,-0.100000)"
fill="#000000" stroke="none">
<path d="M6995 9791 c-112 -9 -216 -61 -305 -151 -58 -59 -96 -120 -369 -600
-1632 -2870 -4496 -7954 -4905 -8706 -64 -118 -76 -147 -76 -187 0 -41 5 -53
37 -87 31 -32 49 -42 92 -50 64 -12 423 -12 644 -1 153 8 160 9 230 44 106 52
176 120 244 235 461 785 4813 8501 5201 9223 63 116 69 168 25 220 -52 61 -64
63 -418 65 -176 1 -356 -1 -400 -5z"/>
<path d="M1557 9779 c-95 -14 -275 -64 -387 -109 -561 -221 -964 -679 -1121
-1277 -31 -117 -31 -120 -39 -468 -11 -453 -11 -1315 0 -1760 8 -325 10 -357
33 -450 68 -270 208 -544 396 -777 230 -285 632 -525 1025 -610 89 -20 131
-22 356 -23 208 0 273 3 355 19 131 24 277 72 408 134 438 207 709 479 923
927 105 220 127 314 144 603 13 219 13 2042 0 2195 -27 324 -193 694 -448 997
-97 115 -191 198 -337 295 -251 167 -503 265 -773 300 -122 16 -436 19 -535 4z
m400 -1224 c122 -23 194 -64 298 -169 66 -67 103 -114 138 -178 l47 -86 0
-1077 0 -1077 -47 -83 c-86 -155 -177 -246 -318 -316 -74 -37 -88 -40 -185
-46 -133 -7 -227 7 -307 48 -127 65 -229 167 -310 313 l-43 76 0 1085 0 1084
47 87 c85 153 209 267 358 326 83 33 195 37 322 13z"/>
<path d="M7184 5499 c-318 -17 -695 -169 -985 -400 -314 -250 -555 -643 -655
-1069 -16 -68 -18 -166 -21 -1095 -6 -1493 -4 -1523 167 -1872 198 -403 478
-687 855 -868 234 -113 376 -155 588 -176 149 -14 435 -6 562 16 274 49 640
231 876 438 169 148 298 324 429 586 154 309 157 327 172 1098 8 442 8 744 0
1190 -15 777 -17 793 -168 1099 -208 423 -462 680 -868 874 -171 83 -317 133
-451 155 -127 22 -345 32 -501 24z m298 -1234 c114 -24 190 -67 288 -165 62
-61 99 -109 133 -171 l47 -86 0 -1086 0 -1086 -47 -88 c-80 -146 -212 -268
-352 -322 -64 -26 -215 -36 -315 -22 -173 24 -337 154 -449 354 l-47 85 0
1077 0 1076 26 52 c96 190 231 315 411 382 51 19 214 19 305 0z"/>
</g>
</svg>
