<?xml version="1.0" standalone="no"?>
<!DOCTYPE svg PUBLIC "-//W3C//DTD SVG 20010904//EN"
 "http://www.w3.org/TR/2001/REC-SVG-20010904/DTD/svg10.dtd">
<svg version="1.0" xmlns="http://www.w3.org/2000/svg"
 width="72.000000pt" height="497.000000pt" viewBox="0 0 72.000000 497.000000"
 preserveAspectRatio="xMidYMid meet">

<g transform="translate(0.000000,497.000000) scale(0.100000,-0.100000)"
fill="#000000" stroke="none">
<path d="M230 2485 l0 -2485 130 0 c80 0 130 4 130 10 0 6 -47 10 -120 10
l-120 0 0 45 0 45 54 0 c30 0 58 4 61 10 4 6 -17 10 -54 10 l-61 0 0 45 0 45
54 0 c30 0 58 5 61 10 4 6 -17 10 -54 10 l-61 0 0 45 0 45 54 0 c30 0 58 4 61
10 4 6 -17 10 -54 10 l-61 0 0 45 0 45 61 0 c37 0 58 4 54 10 -3 6 -31 10 -61
10 l-54 0 0 45 0 45 120 0 c73 0 120 4 120 10 0 6 -47 10 -120 10 l-120 0 0
45 0 45 54 0 c30 0 58 5 61 10 4 6 -17 10 -54 10 l-61 0 0 45 0 45 54 0 c30 0
58 4 61 10 4 6 -17 10 -54 10 l-61 0 0 45 0 45 54 0 c30 0 58 5 61 10 4 6 -17
10 -54 10 l-61 0 0 45 0 45 61 0 c37 0 58 4 54 10 -3 5 -31 10 -61 10 l-54 0
0 45 0 45 120 0 c73 0 120 4 120 10 0 6 -47 10 -120 10 l-120 0 0 45 0 45 54
0 c30 0 58 4 61 10 4 6 -17 10 -54 10 l-61 0 0 45 0 45 54 0 c30 0 58 5 61 10
4 6 -17 10 -54 10 l-61 0 0 45 0 45 54 0 c30 0 58 5 61 10 4 6 -17 10 -54 10
l-61 0 0 45 0 45 61 0 c37 0 58 4 54 10 -3 6 -31 10 -61 10 l-54 0 0 45 0 45
120 0 c73 0 120 4 120 10 0 6 -47 10 -120 10 l-120 0 0 45 0 45 54 0 c30 0 58
5 61 10 4 6 -17 10 -54 10 l-61 0 0 45 0 45 54 0 c30 0 58 5 61 10 4 6 -17 10
-54 10 l-61 0 0 45 0 45 54 0 c30 0 58 5 61 10 4 6 -17 10 -54 10 l-61 0 0 45
0 45 61 0 c37 0 58 4 54 10 -3 6 -31 10 -61 10 l-54 0 0 45 0 45 120 0 c73 0
120 4 120 10 0 6 -47 10 -120 10 l-120 0 0 45 0 45 54 0 c30 0 58 5 61 10 4 6
-17 10 -54 10 l-61 0 0 45 0 45 54 0 c30 0 58 5 61 10 4 6 -17 10 -54 10 l-61
0 0 45 0 45 54 0 c30 0 58 5 61 10 4 6 -17 10 -54 10 l-61 0 0 45 0 45 61 0
c37 0 58 4 54 10 -3 6 -31 10 -61 10 l-54 0 0 45 0 45 120 0 c73 0 120 4 120
10 0 6 -47 10 -120 10 l-120 0 0 45 0 45 54 0 c30 0 58 5 61 10 4 6 -17 10
-54 10 l-61 0 0 45 0 45 54 0 c30 0 58 5 61 10 4 6 -17 10 -54 10 l-61 0 0 45
0 45 54 0 c30 0 58 5 61 10 4 6 -17 10 -54 10 l-61 0 0 45 0 45 61 0 c37 0 58
4 54 10 -3 6 -31 10 -61 10 l-54 0 0 45 0 45 120 0 c73 0 120 4 120 10 0 6
-47 10 -120 10 l-120 0 0 45 0 45 54 0 c30 0 58 5 61 10 4 6 -17 10 -54 10
l-61 0 0 45 0 45 54 0 c30 0 58 5 61 10 4 6 -17 10 -54 10 l-61 0 0 45 0 45
54 0 c30 0 58 5 61 10 4 6 -17 10 -54 10 l-61 0 0 45 0 45 61 0 c37 0 58 4 54
10 -3 6 -31 10 -61 10 l-54 0 0 45 0 45 120 0 c73 0 120 4 120 10 0 6 -47 10
-120 10 l-120 0 0 45 0 45 54 0 c30 0 58 5 61 10 4 6 -17 10 -54 10 l-61 0 0
45 0 45 54 0 c30 0 58 5 61 10 4 6 -17 10 -54 10 l-61 0 0 45 0 45 54 0 c30 0
58 5 61 10 4 6 -17 10 -54 10 l-61 0 0 45 0 45 61 0 c37 0 58 4 54 10 -3 6
-31 10 -61 10 l-54 0 0 45 0 45 120 0 c73 0 120 4 120 10 0 6 -47 10 -120 10
l-120 0 0 45 0 45 54 0 c30 0 58 5 61 10 4 6 -17 10 -54 10 l-61 0 0 45 0 45
54 0 c30 0 58 5 61 10 4 6 -17 10 -54 10 l-61 0 0 45 0 45 54 0 c30 0 58 5 61
10 4 6 -17 10 -54 10 l-61 0 0 45 0 45 61 0 c37 0 58 4 54 10 -3 6 -31 10 -61
10 l-54 0 0 45 0 45 120 0 c73 0 120 4 120 10 0 6 -50 10 -130 10 l-130 0 0
-2485z"/>
</g>
</svg>
