<?xml version="1.0" standalone="no"?>
<!DOCTYPE svg PUBLIC "-//W3C//DTD SVG 20010904//EN"
 "http://www.w3.org/TR/2001/REC-SVG-20010904/DTD/svg10.dtd">
<svg version="1.0" xmlns="http://www.w3.org/2000/svg"
 width="512.000000pt" height="512.000000pt" viewBox="0 0 512.000000 512.000000"
 preserveAspectRatio="xMidYMid meet">

<g transform="translate(0.000000,512.000000) scale(0.100000,-0.100000)"
fill="#000000" stroke="none">
<path d="M380 5101 c-179 -58 -303 -179 -357 -348 -29 -93 -30 -179 -3 -477
31 -355 77 -870 115 -1301 19 -220 42 -472 50 -560 21 -237 42 -470 75 -855
81 -925 99 -1119 111 -1164 46 -172 183 -318 350 -371 l80 -25 1757 0 c1912 0
1799 -3 1921 56 70 34 189 151 224 219 42 85 55 150 77 385 11 124 24 275 30
335 9 95 140 1579 200 2270 11 127 25 277 30 335 5 58 19 211 30 340 11 129
27 307 35 394 17 184 19 322 5 384 -40 170 -192 328 -369 382 -62 20 -104 20
-2185 19 -2006 0 -2124 -1 -2176 -18z m4298 -216 c58 -17 144 -81 173 -128 10
-18 27 -56 36 -85 20 -62 27 44 -92 -1302 -46 -531 -92 -1044 -100 -1140 -9
-96 -20 -222 -25 -280 -5 -58 -19 -211 -30 -340 -12 -129 -29 -332 -40 -450
-11 -118 -29 -323 -40 -455 -18 -200 -25 -249 -45 -291 -30 -68 -82 -123 -147
-160 l-53 -29 -1750 0 -1750 0 -47 22 c-68 31 -131 94 -161 161 -23 51 -28 90
-51 352 -14 162 -31 342 -36 400 -5 58 -21 233 -35 390 -14 157 -34 386 -45
510 -11 124 -26 302 -35 395 -8 94 -37 427 -65 740 -28 314 -57 647 -65 740
-8 94 -22 244 -30 335 -28 318 -29 352 -11 408 33 98 104 171 199 203 49 17
161 18 2123 19 1824 0 2076 -2 2122 -15z"/>
<path d="M2305 4469 c-397 -53 -769 -214 -1052 -456 l-53 -45 0 -81 0 -82 102
-110 c55 -60 133 -144 172 -185 39 -41 156 -168 259 -282 104 -113 198 -209
210 -212 12 -3 49 -6 81 -6 47 0 66 5 90 24 101 77 271 126 436 126 179 0 316
-35 429 -111 52 -35 65 -39 117 -38 33 1 69 4 82 7 12 4 184 183 382 397 l360
390 0 81 c0 93 6 85 -151 203 -250 188 -527 306 -864 367 -106 19 -492 28
-600 13z m497 -224 c214 -30 384 -83 578 -180 123 -61 290 -170 290 -189 0
-10 -572 -627 -579 -624 -3 2 -41 20 -84 41 -75 36 -255 87 -309 87 l-28 0 0
230 0 230 -110 0 -110 0 0 -229 0 -228 -62 -7 c-81 -10 -238 -60 -308 -98
l-54 -30 -73 76 c-40 42 -162 174 -271 294 -110 119 -207 224 -216 231 -9 7
-16 19 -16 25 0 14 121 100 226 160 189 108 440 188 673 216 115 13 336 11
453 -5z"/>
<path d="M2450 1600 l0 -960 110 0 110 0 0 960 0 960 -110 0 -110 0 0 -960z"/>
</g>
</svg>
