<?xml version="1.0" standalone="no"?>
<!DOCTYPE svg PUBLIC "-//W3C//DTD SVG 20010904//EN"
 "http://www.w3.org/TR/2001/REC-SVG-20010904/DTD/svg10.dtd">
<svg version="1.0" xmlns="http://www.w3.org/2000/svg"
 width="1223.000000pt" height="1224.000000pt" viewBox="0 0 1223.000000 1224.000000"
 preserveAspectRatio="xMidYMid meet">
<metadata>
Created by potrace 1.16, written by Peter Selinger 2001-2019
</metadata>
<g transform="translate(0.000000,1224.000000) scale(0.100000,-0.100000)"
fill="#000000" stroke="none">
<path d="M8584 12221 c-51 -23 -89 -71 -104 -131 -7 -31 -10 -219 -8 -615 3
-556 4 -571 24 -610 11 -22 40 -53 63 -70 l43 -30 553 -5 553 -5 -775 -769
c-577 -573 -778 -767 -788 -760 -138 96 -365 245 -450 296 -678 400 -1403 622
-2220 679 -217 15 -737 6 -935 -15 -1219 -135 -2232 -637 -3109 -1542 -769
-793 -1233 -1720 -1380 -2754 -41 -289 -46 -368 -46 -775 0 -320 4 -433 18
-565 114 -1036 486 -1904 1157 -2700 138 -164 471 -499 635 -640 502 -429
1052 -745 1650 -945 463 -156 904 -235 1422 -254 1334 -51 2493 341 3483 1178
161 136 442 411 583 571 802 911 1210 1928 1256 3135 44 1127 -238 2141 -846
3050 -52 77 -108 159 -125 183 l-32 43 777 777 777 777 0 -553 c0 -389 3 -560
11 -575 17 -32 60 -77 91 -93 40 -21 1213 -21 1261 0 39 16 82 61 96 99 8 20
11 562 11 1763 0 1721 0 1735 -20 1774 -11 22 -39 52 -62 67 l-42 28 -1740 2
c-1683 3 -1742 2 -1782 -16z m-3159 -3491 c861 -73 1579 -403 2204 -1014 611
-599 958 -1267 1071 -2066 61 -425 44 -906 -45 -1327 -168 -794 -630 -1520
-1325 -2079 -456 -367 -1001 -615 -1573 -713 -370 -64 -841 -70 -1211 -15
-538 79 -1057 288 -1491 597 -330 236 -667 568 -905 894 -230 315 -421 701
-525 1063 -178 620 -190 1349 -30 1971 127 497 355 939 699 1356 129 156 419
441 576 567 581 464 1197 706 1955 769 96 8 490 6 600 -3z"/>
</g>
</svg>
