<?xml version="1.0" standalone="no"?>
<!DOCTYPE svg PUBLIC "-//W3C//DTD SVG 20010904//EN"
 "http://www.w3.org/TR/2001/REC-SVG-20010904/DTD/svg10.dtd">
<svg version="1.0" xmlns="http://www.w3.org/2000/svg"
 width="126.000000pt" height="264.000000pt" viewBox="0 0 126.000000 264.000000"
 preserveAspectRatio="xMidYMid meet">

<g transform="translate(0.000000,264.000000) scale(0.100000,-0.100000)"
fill="#000000" stroke="none">
<path d="M477 2566 c-82 -35 -153 -68 -157 -72 -5 -5 -10 -54 -11 -109 -1 -55
-6 -110 -10 -122 -8 -21 -6 -23 27 -23 33 0 34 1 23 22 -17 32 -25 218 -9 218
6 0 74 -27 151 -60 l139 -59 155 66 c85 37 153 69 150 71 -5 5 -299 132 -305
131 -3 0 -72 -28 -153 -63z"/>
<path d="M436 2393 c-3 -8 -6 -39 -6 -68 0 -31 -8 -71 -20 -96 -61 -135 12
-293 155 -334 118 -35 243 26 291 141 20 49 17 141 -6 193 -14 30 -20 65 -20
113 0 52 -3 69 -12 65 -7 -3 -52 -22 -101 -43 l-87 -37 -95 40 c-76 33 -95 38
-99 26z"/>
<path d="M322 1793 c-36 -17 -26 0 -203 -378 -119 -256 -126 -287 -71 -336 24
-22 42 -29 72 -29 61 0 88 34 171 215 l74 159 5 -669 c5 -619 6 -672 23 -696
19 -28 56 -49 88 -49 28 0 77 27 89 49 6 13 10 149 10 371 0 223 4 358 10 371
14 26 66 26 80 0 6 -13 10 -148 10 -371 l0 -352 34 -34 c38 -38 70 -43 116
-19 62 32 60 10 60 736 0 364 2 660 5 657 3 -3 39 -77 80 -164 41 -88 86 -169
101 -181 40 -36 98 -31 140 11 26 26 34 42 33 68 0 21 -51 143 -137 328 -127
273 -140 296 -172 312 -31 16 -68 18 -310 18 -233 0 -280 -3 -308 -17z"/>
</g>
</svg>
