<?xml version="1.0" standalone="no"?>
<!DOCTYPE svg PUBLIC "-//W3C//DTD SVG 20010904//EN"
 "http://www.w3.org/TR/2001/REC-SVG-20010904/DTD/svg10.dtd">
<svg version="1.0" xmlns="http://www.w3.org/2000/svg"
 width="290.000000pt" height="573.000000pt" viewBox="0 0 290.000000 573.000000"
 preserveAspectRatio="xMidYMid meet">

<g transform="translate(0.000000,573.000000) scale(0.100000,-0.100000)"
fill="#000000" stroke="none">
<path d="M1209 5716 c-20 -7 -49 -22 -65 -33 -16 -10 -51 -27 -77 -37 -52 -20
-148 -106 -185 -167 -23 -38 -29 -84 -13 -94 5 -3 -1 -17 -15 -32 -13 -14 -28
-42 -34 -62 -12 -44 -13 -114 -1 -107 4 3 11 -27 15 -66 3 -39 13 -96 22 -125
15 -53 15 -54 -8 -72 -20 -17 -23 -28 -23 -93 0 -60 5 -83 28 -131 16 -31 44
-69 63 -83 19 -15 34 -31 34 -38 0 -6 16 -42 36 -81 32 -62 35 -75 29 -120
-20 -151 -126 -253 -386 -370 -77 -35 -161 -81 -186 -101 -128 -105 -215 -279
-253 -504 -6 -36 -15 -213 -20 -395 -8 -333 -15 -388 -53 -478 -24 -56 -44
-160 -72 -388 -25 -193 -26 -220 -19 -499 5 -226 3 -315 -7 -380 -14 -87 -17
-210 -9 -360 2 -47 1 -119 -4 -160 l-7 -75 81 -108 c88 -117 111 -133 244
-172 l56 -16 0 -113 c0 -130 -2 -128 100 -175 99 -46 226 -65 395 -57 119 5
256 24 270 38 2 2 25 98 50 213 25 116 50 231 56 256 6 26 20 57 32 70 l22 24
2 -40 c13 -201 19 -216 74 -176 19 14 29 17 29 9 0 -7 20 -99 46 -205 l46
-191 71 -13 c45 -7 125 -10 217 -6 119 4 166 10 260 36 139 37 210 63 221 83
4 8 13 82 20 165 12 151 12 152 38 158 14 3 62 20 105 38 70 28 84 38 119 87
22 30 61 81 85 114 l45 58 -13 80 c-10 63 -10 107 0 221 10 122 9 154 -4 231
-10 57 -16 148 -16 257 l0 169 30 42 c17 22 30 47 30 55 0 9 15 13 55 13 46 0
57 4 70 24 61 93 83 287 45 389 -12 31 -29 61 -38 66 -10 5 -60 5 -116 0 -55
-5 -101 -7 -102 -6 0 1 -9 53 -18 115 -9 62 -33 159 -51 216 -28 84 -37 129
-44 233 -5 70 -7 162 -4 203 9 128 -14 415 -41 521 -42 165 -118 305 -213 389
-61 55 -231 138 -379 187 -137 45 -179 76 -222 163 -47 93 -49 130 -16 205 18
37 39 68 55 77 33 19 85 94 104 149 25 69 16 148 -18 170 -6 5 -4 36 7 88 21
108 20 125 -8 156 -14 15 -28 40 -31 56 -4 15 -12 27 -18 26 -7 -1 -13 14 -15
37 l-3 39 31 -27 c17 -14 38 -26 45 -26 7 0 15 -6 18 -12 4 -10 7 -10 17 -1
16 15 1 72 -36 143 -13 25 -24 61 -24 80 -1 76 -48 137 -133 169 -38 15 -34
-4 5 -20 36 -15 98 -66 98 -81 0 -5 -15 7 -34 26 -32 35 -56 46 -56 27 0 -5 9
-13 21 -16 11 -4 29 -21 40 -38 23 -38 24 -48 5 -41 -7 3 -13 12 -12 21 1 19
-47 57 -65 51 -9 -3 -6 -11 11 -28 23 -23 23 -23 2 -18 -12 4 -24 2 -27 -2 -3
-5 10 -12 30 -16 40 -7 85 -39 85 -60 0 -8 4 -14 8 -14 14 0 33 -48 21 -52 -5
-2 0 -22 13 -45 12 -23 20 -45 16 -49 -12 -11 -59 26 -72 57 -13 30 -29 30
-19 1 3 -13 1 -13 -11 2 -9 11 -16 30 -16 44 0 14 -4 21 -11 16 -13 -8 -3 -53
18 -76 8 -9 16 -37 18 -63 1 -25 8 -51 14 -59 13 -16 6 -332 -11 -441 -13 -86
-58 -221 -94 -282 -100 -171 -279 -243 -422 -169 -106 54 -190 169 -234 321
-21 73 -23 100 -23 307 0 124 -3 224 -7 221 -5 -2 -8 -52 -9 -111 -1 -149 -11
-168 -35 -67 -13 54 -19 117 -19 191 0 103 2 113 27 151 18 27 25 50 23 69 -4
31 12 121 24 128 3 2 4 -16 2 -41 -3 -40 -1 -45 14 -40 9 4 18 7 21 7 2 0 1
15 -1 33 l-5 32 10 -31 c13 -40 32 -56 70 -59 17 -1 33 -5 37 -9 3 -3 13 -6
21 -6 10 0 7 7 -10 23 -33 30 -40 54 -29 92 5 17 10 24 10 16 1 -8 15 5 31 27
37 52 49 56 15 6 -26 -39 -29 -56 -15 -89 7 -17 9 -17 9 -3 1 10 15 32 32 50
l31 33 -22 -33 c-25 -38 -22 -48 12 -32 14 7 7 -3 -17 -24 l-40 -36 30 2 c17
1 39 9 49 17 11 9 16 10 12 4 -10 -18 -2 -16 47 8 33 17 39 18 28 5 -23 -27
-3 -31 27 -5 l27 24 -22 -26 c-35 -39 -27 -45 12 -10 20 17 42 31 50 31 25 0
17 17 -14 30 -25 10 -35 8 -82 -15 -62 -31 -57 -25 24 34 31 23 57 46 57 51 0
15 -11 12 -60 -15 l-45 -25 30 28 c62 58 64 67 7 38 -74 -38 -64 -24 15 20 37
21 61 40 55 42 -7 2 -23 -3 -35 -11 -14 -9 -29 -11 -42 -6 -14 5 -15 8 -5 9
10 1 9 4 -5 10 -15 7 -8 9 30 11 28 1 56 2 63 2 21 -1 13 13 -13 25 -33 15
-91 14 -136 -2z m46 -13 c-39 -8 -75 -26 -75 -36 0 -13 -31 -36 -49 -37 -21 0
27 50 64 66 17 7 41 13 55 12 20 0 21 -1 5 -5z m-145 -73 c0 -9 -15 -14 -34
-11 -4 1 -15 -4 -23 -11 -15 -12 -43 -20 -43 -12 0 6 74 43 88 44 6 0 12 -4
12 -10z m-56 -65 c-17 -41 -18 -88 -3 -118 12 -22 12 -22 -10 -3 -29 26 -29
93 0 130 27 35 31 33 13 -9z m136 32 c0 -2 -15 -13 -32 -26 l-33 -22 28 25
c26 24 37 31 37 23z m-180 -40 c0 -8 -7 -14 -15 -14 -11 0 -12 4 -4 14 6 7 13
13 15 13 2 0 4 -6 4 -13z m740 -87 c0 -5 -2 -10 -4 -10 -3 0 -8 5 -11 10 -3 6
-1 10 4 10 6 0 11 -4 11 -10z m-854 -78 c-9 -8 -26 10 -26 26 1 15 2 15 15 -2
8 -11 13 -21 11 -24z m881 -332 c-4 -30 -15 -82 -26 -115 l-19 -60 -1 154 -1
154 26 -39 c23 -34 26 -45 21 -94z m-897 -149 c0 -5 2 -15 5 -23 4 -9 -3 -13
-20 -13 -29 0 -28 0 -15 26 11 20 30 26 30 10z m899 -25 c10 -12 8 -13 -8 -9
-12 3 -18 9 -15 14 7 12 10 11 23 -5z m-895 -32 c9 -3 16 -13 16 -21 0 -8 -4
-11 -10 -8 -5 3 -10 -3 -10 -14 0 -11 -5 -32 -12 -46 -10 -22 -8 -28 10 -46
12 -11 22 -25 22 -32 0 -8 3 -8 9 1 6 10 10 4 15 -19 13 -65 -16 -43 -59 46
-27 54 -31 95 -15 126 12 21 12 21 34 13z m896 -13 c25 -47 -6 -136 -71 -211
-28 -32 -30 -33 -25 -10 3 14 15 70 27 125 23 112 44 142 69 96z m-870 -93 c0
-19 -15 -24 -24 -10 -3 5 -2 19 1 31 4 17 8 19 14 9 5 -7 9 -21 9 -30z m700
-384 c18 -63 80 -156 121 -181 19 -12 75 -33 124 -48 109 -33 314 -130 372
-177 94 -74 180 -222 219 -376 33 -128 44 -267 44 -533 0 -248 12 -348 54
-461 21 -56 38 -137 60 -287 4 -23 4 -24 -73 -17 -231 19 -257 25 -326 75
l-64 46 -35 145 c-34 140 -35 154 -42 398 -4 152 -11 255 -17 259 -13 8 -2
-401 14 -534 6 -51 8 -117 4 -148 l-6 -55 -29 20 c-90 64 -140 59 -214 -20
-26 -28 -51 -50 -55 -50 -5 0 -31 27 -57 60 -50 61 -63 69 -147 89 -67 16 -95
14 -106 -8 -6 -10 -23 -21 -39 -24 -21 -4 -33 -15 -40 -35 -6 -17 -22 -34 -38
-41 -41 -17 -94 -115 -94 -175 l0 -46 -87 0 c-85 0 -381 23 -461 36 l-39 6 -7
82 c-4 44 -13 112 -19 151 -14 79 0 282 27 415 9 41 18 127 20 190 5 110 4
111 -5 40 -5 -41 -19 -131 -31 -200 -11 -69 -24 -177 -29 -242 -5 -74 -21
-168 -43 -260 -19 -78 -47 -233 -61 -343 -31 -242 -53 -336 -143 -615 -38
-118 -75 -250 -82 -293 l-13 -78 -22 21 c-37 35 -41 22 -4 -17 47 -50 106
-142 124 -194 19 -53 19 -89 -1 -138 -15 -37 -14 -42 5 -87 12 -25 21 -59 21
-74 0 -24 -6 -31 -38 -42 -20 -7 -41 -13 -46 -13 -5 0 -17 23 -26 52 l-17 51
24 11 c21 10 22 9 11 -9 -15 -24 -6 -35 20 -21 11 6 20 21 20 36 0 29 -8 31
-47 11 -27 -15 -28 -14 -62 37 -19 28 -41 53 -49 55 -10 3 -9 -3 6 -19 35 -40
35 -45 -6 -41 -21 2 -41 -1 -44 -7 -5 -7 7 -11 33 -11 46 0 45 1 29 -35 -8
-18 -19 -25 -40 -25 -15 0 -28 -4 -28 -10 0 -5 12 -10 28 -10 23 0 30 -7 49
-55 13 -30 20 -61 17 -70 -4 -10 -2 -13 8 -10 8 3 43 -5 79 -17 l64 -23 2 -45
c2 -33 0 -39 -6 -25 -8 18 -10 18 -16 3 -6 -15 -13 -14 -81 10 -61 21 -74 29
-71 44 3 11 0 18 -10 18 -8 0 -11 5 -8 10 8 13 -8 13 -21 0 -6 -6 -35 25 -82
88 -58 77 -72 102 -67 122 14 67 17 182 5 288 -11 105 -10 126 6 207 16 78 18
135 16 426 -3 312 -1 353 23 549 25 201 35 252 84 414 29 98 41 236 41 480 0
116 5 252 11 301 29 238 135 450 272 544 23 16 83 45 132 66 253 104 391 223
423 366 l12 55 51 -48 c63 -59 162 -94 237 -84 69 9 161 57 212 108 25 25 48
44 51 42 3 -2 12 -24 19 -50z m85 -1899 c61 -65 142 -122 205 -144 19 -6 103
-23 186 -36 121 -20 336 -65 571 -120 14 -3 32 -23 45 -48 19 -35 23 -58 23
-132 0 -102 -21 -177 -63 -227 -36 -43 -110 -88 -144 -88 -67 0 -317 118 -493
234 -136 90 -276 159 -416 206 l-97 33 -33 -25 c-19 -14 -42 -28 -52 -31 -16
-6 -18 -2 -15 31 3 32 7 38 37 48 36 12 34 17 -13 28 -16 4 -45 18 -65 32 -45
30 -51 30 -51 -1 0 -14 -4 -25 -9 -25 -5 0 -11 -9 -14 -20 -3 -13 0 -20 10
-20 9 0 13 6 9 15 -3 8 -2 15 3 15 16 0 19 -39 4 -51 -10 -9 -11 -14 -2 -20 9
-5 9 -14 -1 -38 -7 -17 -16 -31 -20 -31 -23 0 -32 39 -37 153 l-6 122 33 58
c22 39 40 59 57 63 16 4 30 19 39 40 11 26 20 34 40 34 17 0 28 7 31 19 7 28
28 29 108 9 64 -17 75 -23 130 -83z m420 -33 c-2 -3 -11 1 -20 8 -10 8 -15 29
-14 64 l1 51 19 -59 c11 -33 17 -61 14 -64z m-1483 -287 l1 -240 -37 -145
c-125 -478 -184 -755 -187 -862 0 -31 -2 -29 -18 18 -10 29 -36 84 -59 122
-62 104 -59 126 66 519 74 233 93 321 127 573 27 205 34 244 62 350 l18 65 12
-80 c8 -46 14 -182 15 -320z m1341 358 c18 -9 91 -60 164 -113 l131 -97 133
-13 c77 -8 195 -11 284 -8 l153 5 15 -32 c28 -58 39 -147 27 -220 -10 -64 -45
-171 -58 -179 -4 -2 -7 19 -8 47 0 29 -4 94 -9 146 -11 130 -24 143 -165 175
-58 13 -163 31 -235 41 -98 14 -136 23 -152 38 -20 18 -39 21 -160 23 -149 3
-188 12 -266 61 l-47 29 32 38 c35 43 84 76 111 76 10 0 32 -7 50 -17z m-1316
-275 c-3 -7 -5 -2 -5 12 0 14 2 19 5 13 2 -7 2 -19 0 -25z m36 12 c-3 -11 -7
-20 -9 -20 -2 0 -4 9 -4 20 0 11 4 20 9 20 5 0 7 -9 4 -20z m37 3 c0 -5 -5
-15 -10 -23 -8 -12 -10 -11 -10 8 0 12 5 22 10 22 6 0 10 -3 10 -7z m30 -25
c0 -5 -4 -8 -10 -8 -5 0 -10 10 -10 23 0 18 2 19 10 7 5 -8 10 -18 10 -22z
m30 7 c0 -14 -4 -25 -10 -25 -5 0 -10 11 -10 25 0 14 5 25 10 25 6 0 10 -11
10 -25z m40 1 c0 -8 -4 -18 -10 -21 -5 -3 -10 3 -10 14 0 12 5 21 10 21 6 0
10 -6 10 -14z m30 -6 c0 -11 -4 -20 -10 -20 -5 0 -10 9 -10 20 0 11 5 20 10
20 6 0 10 -9 10 -20z m27 -17 c-3 -10 -5 -4 -5 12 0 17 2 24 5 18 2 -7 2 -21
0 -30z m43 7 c0 -11 -4 -20 -10 -20 -5 0 -10 9 -10 20 0 11 5 20 10 20 6 0 10
-9 10 -20z m40 0 c0 -11 -4 -20 -10 -20 -5 0 -10 9 -10 20 0 11 5 20 10 20 6
0 10 -9 10 -20z m40 -5 c0 -14 -4 -25 -10 -25 -5 0 -10 11 -10 25 0 14 5 25
10 25 6 0 10 -11 10 -25z m40 -5 c0 -11 -4 -20 -10 -20 -5 0 -10 9 -10 20 0
11 5 20 10 20 6 0 10 -9 10 -20z m27 -12 c-3 -7 -5 -2 -5 12 0 14 2 19 5 13 2
-7 2 -19 0 -25z m43 12 c0 -11 -4 -20 -10 -20 -5 0 -10 9 -10 20 0 11 5 20 10
20 6 0 10 -9 10 -20z m40 0 c0 -11 -7 -20 -15 -20 -17 0 -18 2 -9 24 9 23 24
20 24 -4z m30 13 c0 -5 -5 -15 -10 -23 -8 -12 -10 -11 -10 8 0 12 5 22 10 22
6 0 10 -3 10 -7z m30 -13 c0 -11 -4 -20 -10 -20 -5 0 -10 9 -10 20 0 11 5 20
10 20 6 0 10 -9 10 -20z m148 8 c17 -17 15 -65 -3 -72 -11 -4 -15 1 -15 17 0
12 -3 32 -6 45 -7 24 5 29 24 10z m46 -39 c-3 -5 -10 -7 -15 -3 -5 3 -7 10 -3
15 3 5 10 7 15 3 5 -3 7 -10 3 -15z m-559 -9 c54 -8 271 -20 373 -20 7 0 12
-13 12 -30 0 -17 7 -42 16 -55 9 -14 19 -55 22 -91 l5 -66 -119 7 c-65 3 -203
13 -306 21 -103 8 -190 14 -194 14 -9 0 2 215 12 231 7 12 36 10 179 -11z
m512 -72 c-3 -7 -5 -2 -5 12 0 14 2 19 5 13 2 -7 2 -19 0 -25z m-13 -24 c3 -8
2 -12 -4 -9 -6 3 -10 10 -10 16 0 14 7 11 14 -7z m396 -54 c159 -54 202 -72
208 -88 3 -11 -200 -22 -425 -22 l-173 0 0 50 c0 28 7 65 16 81 14 27 19 30
47 25 18 -3 46 -2 62 4 48 15 100 5 265 -50z m-402 22 c2 -7 -2 -10 -12 -6 -9
3 -16 11 -16 16 0 13 23 5 28 -10z m-11 -28 c-3 -3 -12 -4 -19 -1 -8 3 -5 6 6
6 11 1 17 -2 13 -5z m-297 -109 c124 -8 228 -15 231 -15 3 0 9 -134 12 -297 4
-164 11 -329 17 -368 5 -38 9 -183 10 -321 l0 -250 -28 -21 c-33 -25 -34 -27
-98 -323 -26 -118 -51 -219 -55 -224 -15 -16 -178 -35 -312 -35 -153 -1 -256
17 -347 62 l-65 32 0 290 c1 415 17 547 110 935 30 124 63 268 75 320 11 52
30 128 42 169 l22 74 80 -7 c45 -4 182 -13 306 -21z m997 -90 c13 -49 55 -202
93 -340 98 -351 129 -515 150 -787 10 -130 3 -339 -16 -500 l-7 -58 -106 -34
c-166 -54 -266 -70 -426 -68 -77 0 -156 5 -175 9 l-35 9 -52 219 c-28 121 -57
265 -63 320 -6 55 -15 289 -21 520 -5 231 -13 467 -19 525 -5 58 -9 140 -10
183 l0 77 178 1 c97 1 227 5 287 9 61 4 130 7 154 6 l44 -1 24 -90z m-710 59
c-3 -3 -12 -4 -19 -1 -8 3 -5 6 6 6 11 1 17 -2 13 -5z m853 -76 l56 -31 67
-211 c38 -116 73 -242 80 -279 11 -66 10 -71 -13 -110 -64 -112 -90 -172 -91
-211 -2 -33 -3 -35 -6 -11 -14 102 -69 342 -108 475 -41 135 -98 346 -119 433
l-7 29 43 -27 c24 -14 68 -40 98 -57z m-853 56 c-3 -3 -12 -4 -19 -1 -8 3 -5
6 6 6 11 1 17 -2 13 -5z m0 -40 c-3 -3 -12 -4 -19 -1 -8 3 -5 6 6 6 11 1 17
-2 13 -5z m1048 -110 c113 -47 172 -54 218 -26 l35 20 5 -192 c3 -105 11 -219
18 -253 10 -50 10 -93 1 -205 -7 -90 -8 -160 -2 -188 18 -90 15 -103 -57 -200
-54 -74 -70 -89 -86 -84 -14 4 -17 3 -12 -7 6 -9 3 -11 -9 -6 -14 5 -17 2 -14
-16 3 -19 -6 -25 -74 -49 -70 -24 -78 -25 -79 -10 0 14 -2 14 -9 -3 -7 -15 -9
-10 -9 23 -1 42 0 44 47 64 26 12 62 22 79 22 31 1 44 10 24 18 -5 2 3 29 17
61 22 50 28 57 53 57 16 0 29 5 29 10 0 6 -13 10 -29 10 -23 0 -33 7 -45 30
l-14 30 39 0 c21 0 39 5 39 10 0 6 -19 10 -42 10 l-41 0 23 25 c13 14 20 28
16 32 -8 9 -50 -41 -67 -79 -11 -26 -12 -27 -40 -13 -15 8 -35 15 -44 15 -18
0 -21 -20 -2 -21 10 0 10 -2 0 -6 -20 -8 -15 -19 13 -32 33 -15 42 -7 25 22
-13 21 -13 21 5 7 10 -8 20 -15 21 -15 3 -2 -27 -97 -32 -103 -1 -1 -18 5 -38
13 -45 19 -57 53 -33 101 18 40 21 95 5 111 -6 6 -11 34 -11 61 0 61 53 168
120 243 43 48 52 80 12 44 -11 -10 -20 -14 -20 -9 -1 42 -53 223 -146 513 -2
8 1 11 8 8 7 -4 54 -23 103 -43z m-1048 0 c-3 -3 -12 -4 -19 -1 -8 3 -5 6 6 6
11 1 17 -2 13 -5z m0 -20 c-3 -3 -12 -4 -19 -1 -8 3 -5 6 6 6 11 1 17 -2 13
-5z m0 -70 c-3 -3 -12 -4 -19 -1 -8 3 -5 6 6 6 11 1 17 -2 13 -5z m0 -40 c-3
-3 -12 -4 -19 -1 -8 3 -5 6 6 6 11 1 17 -2 13 -5z m6 -91 c-7 -2 -19 -2 -25 0
-7 3 -2 5 12 5 14 0 19 -2 13 -5z m4 -49 c-3 -3 -12 -4 -19 -1 -8 3 -5 6 6 6
11 1 17 -2 13 -5z m-4 -41 c-7 -2 -19 -2 -25 0 -7 3 -2 5 12 5 14 0 19 -2 13
-5z m4 -69 c-3 -3 -12 -4 -19 -1 -8 3 -5 6 6 6 11 1 17 -2 13 -5z m967 -488
c-10 -26 -24 -7 -24 32 l1 37 14 -27 c8 -15 12 -34 9 -42z m-941 47 c-7 -2
-19 -2 -25 0 -7 3 -2 5 12 5 14 0 19 -2 13 -5z m-972 -126 c-19 -19 -24 2 -10
49 l14 47 3 -43 c2 -23 -1 -47 -7 -53z m972 56 c-7 -2 -19 -2 -25 0 -7 3 -2 5
12 5 14 0 19 -2 13 -5z m1107 -71 c0 -12 -49 -37 -57 -29 -2 3 4 24 13 47 17
42 17 42 30 19 7 -13 13 -30 14 -37z m-1107 1 c-7 -2 -19 -2 -25 0 -7 3 -2 5
12 5 14 0 19 -2 13 -5z m-1110 -60 c17 -42 12 -48 -26 -34 -24 9 -25 13 -16
41 14 40 24 38 42 -7z m2184 1 c-16 -9 -32 -13 -35 -9 -9 9 19 25 43 24 16 0
15 -2 -8 -15z m-80 -41 c5 -13 -32 -27 -47 -18 -5 3 -10 15 -10 25 0 15 5 17
27 11 15 -4 28 -12 30 -18z m80 1 c-8 -15 -29 -32 -50 -39 l-36 -12 17 23 c13
17 60 49 80 53 1 1 -4 -11 -11 -25z m-2169 -27 c22 -17 13 -25 -18 -14 -35 13
-49 37 -17 29 12 -2 28 -9 35 -15z m1095 16 c-7 -2 -19 -2 -25 0 -7 3 -2 5 12
5 14 0 19 -2 13 -5z m-1062 -84 c10 -19 9 -20 -13 -14 -24 7 -58 40 -58 56 0
16 59 -20 71 -42z m77 29 c-2 -17 -10 -23 -27 -23 -32 0 -39 23 -9 34 35 15
40 13 36 -11z m1952 7 c0 -2 -7 -5 -15 -9 -9 -3 -15 0 -15 9 0 9 6 12 15 9 8
-4 15 -7 15 -9z m-973 -1 c-3 -3 -12 -4 -19 -1 -8 3 -5 6 6 6 11 1 17 -2 13
-5z m10 -20 c-3 -3 -12 -4 -19 -1 -8 3 -5 6 6 6 11 1 17 -2 13 -5z m-990 -60
c-2 -2 -12 -1 -22 3 -18 6 -18 7 1 13 17 7 33 -5 21 -16z m983 -34 c-8 -5 -19
-10 -25 -10 -5 0 -3 5 5 10 8 5 20 10 25 10 6 0 3 -5 -5 -10z"/>
<path d="M1736 4819 c-4 -8 -2 -29 4 -44 9 -24 8 -32 -5 -41 -10 -8 -15 -22
-13 -36 4 -22 5 -22 13 -3 5 11 15 25 24 31 12 9 12 17 3 40 -6 16 -13 38 -15
49 -3 17 -5 17 -11 4z"/>
<path d="M870 3929 c0 -7 36 -10 108 -9 222 3 212 5 270 -45 61 -51 71 -50
123 9 l36 41 86 -3 c52 -2 88 1 92 8 4 7 -25 10 -87 10 l-94 0 -44 -45 c-24
-25 -48 -45 -52 -45 -4 0 -30 20 -58 45 l-51 45 -164 0 c-111 0 -165 -4 -165
-11z"/>
<path d="M2365 2515 c-5 -2 -23 -6 -39 -10 -23 -5 -27 -8 -15 -16 12 -7 11 -9
-3 -9 -10 0 -18 -4 -18 -10 0 -5 15 -7 33 -4 17 2 6 -4 -26 -15 -58 -19 -112
-49 -104 -57 2 -2 29 7 59 21 31 14 92 31 137 37 44 7 81 16 81 21 0 6 -22 7
-51 3 -32 -4 -49 -3 -45 3 4 5 -2 12 -11 14 -10 3 15 5 55 6 40 0 72 5 72 11
0 9 -101 13 -125 5z"/>
<path d="M185 2440 c3 -5 36 -10 73 -11 37 0 61 -3 54 -6 -6 -2 -9 -9 -6 -15
5 -8 -9 -9 -44 -4 -82 11 -61 -8 23 -21 42 -7 102 -23 135 -37 33 -13 60 -20
60 -17 0 11 -37 29 -105 52 -48 16 -52 19 -22 15 20 -3 37 -2 37 0 0 14 -35
37 -68 45 -52 12 -145 11 -137 -1z"/>
<path d="M1420 2421 c0 -4 23 -18 50 -29 63 -26 66 -10 4 18 -53 23 -54 23
-54 11z"/>
<path d="M1490 2425 c0 -9 44 -23 54 -18 4 3 2 9 -5 14 -15 10 -49 12 -49 4z"/>
<path d="M1395 5680 c3 -5 36 -10 73 -10 37 0 74 -4 82 -10 8 -5 15 -26 16
-52 1 -24 -1 -33 -3 -20 -5 27 -23 30 -23 3 0 -10 -10 -31 -22 -47 -22 -27
-10 -26 25 4 10 9 17 11 17 4 0 -6 -4 -14 -10 -17 -12 -8 -13 -25 -1 -25 9 0
26 38 34 75 3 13 5 9 6 -11 1 -18 -8 -43 -20 -58 -23 -29 -19 -47 5 -27 38 32
44 131 8 131 -15 0 -15 2 -2 10 13 9 11 14 -13 35 -25 22 -37 25 -103 25 -48
0 -73 -4 -69 -10z"/>
<path d="M1485 5638 c7 -29 -23 -71 -68 -95 -18 -9 -26 -18 -20 -20 17 -6 81
34 93 57 13 24 13 67 0 75 -7 4 -9 -2 -5 -17z"/>
<path d="M1426 5615 c-10 -14 -31 -35 -49 -47 -18 -11 -24 -17 -14 -14 10 3
27 6 37 6 29 0 72 42 65 63 -10 24 -20 21 -39 -8z"/>
<path d="M1520 5630 c-1 -3 -3 -14 -5 -25 -2 -11 -20 -35 -40 -53 -45 -42 -38
-54 10 -18 34 27 52 63 42 88 -3 7 -6 11 -7 8z"/>
<path d="M1428 5485 c-3 -3 -21 -7 -40 -8 -37 -3 -88 -30 -88 -47 0 -15 9 -12
32 10 12 11 26 20 31 20 5 0 -1 -9 -14 -19 -13 -11 -21 -22 -17 -26 4 -4 21 4
38 18 27 24 52 33 125 50 11 3 2 5 -21 6 -22 0 -43 -1 -46 -4z"/>
<path d="M1527 5465 c-101 -15 -136 -33 -66 -35 24 -1 82 -1 129 -1 66 1 93
-3 123 -18 43 -22 50 -10 10 16 -22 14 -47 18 -128 17 l-100 -1 98 10 c53 5
97 14 97 18 0 12 -56 10 -163 -6z"/>
<path d="M881 5307 c-13 -27 -21 -63 -21 -95 0 -70 14 -67 17 4 1 35 9 68 22
90 24 40 25 44 12 44 -5 0 -19 -19 -30 -43z"/>
<path d="M933 5335 c-12 -8 -27 -31 -33 -50 -12 -37 -5 -99 11 -89 5 3 10 -1
10 -8 1 -7 5 12 10 42 14 86 14 87 28 104 17 20 2 21 -26 1z m-16 -87 c-3 -7
-5 -2 -5 12 0 14 2 19 5 13 2 -7 2 -19 0 -25z"/>
<path d="M1760 5247 c0 -3 10 -26 22 -53 14 -31 23 -43 26 -32 3 18 -21 73
-38 83 -5 3 -10 4 -10 2z"/>
</g>
</svg>
